<svg width="7058" height="2632" viewBox="0 0 7058 2632" fill="none" xmlns="http://www.w3.org/2000/svg">
<path d="M3423.22 2198.6C3435.25 2164.54 3454.78 2132.51 3482.28 2105.16C3579.94 2007.51 3738.22 2007.51 3835.88 2105.16L3862.59 2132.04H3809C3781.34 2132.04 3759 2154.38 3759 2182.04C3759 2209.7 3781.34 2232.04 3809 2232.04H3983.84C4011.5 2232.04 4033.84 2209.7 4033.84 2182.04V2007.04C4033.84 1979.38 4011.5 1957.04 3983.84 1957.04C3956.19 1957.04 3933.84 1979.38 3933.84 2007.04V2062.04L3906.5 2034.54C3769.78 1897.82 3548.22 1897.82 3411.5 2034.54C3373.37 2072.66 3345.87 2117.51 3329 2165.48C3319.78 2191.57 3333.53 2220.01 3359.47 2229.23C3385.41 2238.45 3414 2224.7 3423.22 2198.76V2198.6ZM3319.94 2334.07C3312.12 2336.41 3304.62 2340.63 3298.53 2346.88C3292.28 2353.13 3288.06 2360.63 3285.88 2368.76C3285.41 2370.63 3284.94 2372.66 3284.62 2374.7C3284.16 2377.35 3284 2380.01 3284 2382.66V2557.04C3284 2584.7 3306.34 2607.04 3334 2607.04C3361.66 2607.04 3384 2584.7 3384 2557.04V2502.2L3411.5 2529.54C3548.22 2666.1 3769.78 2666.1 3906.34 2529.54C3944.47 2491.41 3972.13 2446.57 3989 2398.76C3998.22 2372.66 3984.47 2344.23 3958.53 2335.01C3932.59 2325.79 3904 2339.54 3894.78 2365.48C3882.75 2399.54 3863.22 2431.57 3835.72 2458.91C3738.06 2556.57 3579.78 2556.57 3482.13 2458.91L3481.97 2458.76L3455.25 2432.04H3509C3536.66 2432.04 3559 2409.7 3559 2382.04C3559 2354.38 3536.66 2332.04 3509 2332.04H3334.63C3332.13 2332.04 3329.62 2332.2 3327.12 2332.51C3324.62 2332.82 3322.28 2333.29 3319.94 2334.07Z" fill="#82D1F5"/>
<path d="M74.0767 228.631V339H21.1293V148.091H71.5909V181.773H73.8281C78.054 170.67 85.1385 161.887 95.0817 155.424C105.025 148.878 117.081 145.605 131.25 145.605C144.508 145.605 156.067 148.505 165.927 154.305C175.787 160.106 183.452 168.392 188.92 179.163C194.389 189.852 197.124 202.613 197.124 217.445V339H144.176V226.891C144.259 215.207 141.276 206.093 135.227 199.547C129.179 192.918 120.851 189.604 110.245 189.604C103.119 189.604 96.8217 191.137 91.353 194.202C85.9671 197.268 81.7412 201.743 78.6754 207.626C75.6925 213.426 74.1596 220.428 74.0767 228.631ZM361.279 257.714V148.091H414.227V339H363.392V304.323H361.404C357.095 315.509 349.928 324.5 339.901 331.294C329.958 338.089 317.819 341.486 303.485 341.486C290.724 341.486 279.497 338.586 269.802 332.786C260.107 326.985 252.526 318.741 247.057 308.052C241.671 297.363 238.937 284.561 238.854 269.646V148.091H291.801V260.2C291.884 271.469 294.909 280.377 300.874 286.923C306.84 293.469 314.836 296.741 324.862 296.741C331.243 296.741 337.209 295.291 342.76 292.391C348.312 289.408 352.786 285.017 356.183 279.217C359.664 273.416 361.362 266.249 361.279 257.714ZM456.578 339V148.091H507.04V181.773H509.277C513.255 170.587 519.883 161.763 529.164 155.3C538.444 148.837 549.547 145.605 562.473 145.605C575.565 145.605 586.71 148.878 595.907 155.424C605.105 161.887 611.236 170.67 614.302 181.773H616.291C620.185 170.836 627.228 162.094 637.42 155.548C647.695 148.92 659.834 145.605 673.837 145.605C691.652 145.605 706.111 151.281 717.214 162.633C728.4 173.902 733.993 189.894 733.993 210.609V339H681.17V221.049C681.17 210.443 678.353 202.488 672.718 197.185C667.084 191.882 660.041 189.231 651.589 189.231C641.977 189.231 634.479 192.297 629.093 198.428C623.707 204.477 621.014 212.473 621.014 222.416V339H569.682V219.93C569.682 210.567 566.989 203.11 561.603 197.558C556.3 192.007 549.299 189.231 540.598 189.231C534.715 189.231 529.412 190.722 524.689 193.705C520.049 196.605 516.362 200.707 513.627 206.01C510.893 211.23 509.526 217.362 509.526 224.405V339H456.578ZM776.811 339V84.4545H829.759V180.158H831.374C833.694 175.02 837.05 169.8 841.442 164.497C845.916 159.111 851.716 154.637 858.842 151.074C866.051 147.428 875 145.605 885.689 145.605C899.609 145.605 912.453 149.251 924.219 156.543C935.985 163.751 945.389 174.647 952.433 189.231C959.476 203.731 962.997 221.919 962.997 243.794C962.997 265.089 959.558 283.07 952.681 297.736C945.887 312.319 936.606 323.381 924.84 330.921C913.157 338.379 900.065 342.107 885.565 342.107C875.29 342.107 866.548 340.409 859.339 337.011C852.214 333.614 846.372 329.347 841.815 324.21C837.257 318.989 833.777 313.728 831.374 308.425H829.013V339H776.811ZM828.64 243.545C828.64 254.897 830.214 264.799 833.363 273.251C836.512 281.702 841.069 288.29 847.035 293.013C853.001 297.653 860.251 299.973 868.786 299.973C877.403 299.973 884.695 297.612 890.661 292.888C896.626 288.083 901.142 281.454 904.208 273.002C907.357 264.468 908.931 254.649 908.931 243.545C908.931 232.525 907.398 222.83 904.332 214.462C901.267 206.093 896.751 199.547 890.785 194.824C884.819 190.101 877.486 187.739 868.786 187.739C860.168 187.739 852.876 190.018 846.911 194.575C841.027 199.133 836.512 205.596 833.363 213.964C830.214 222.333 828.64 232.194 828.64 243.545ZM1085.33 342.729C1065.69 342.729 1048.79 338.751 1034.62 330.797C1020.53 322.759 1009.68 311.408 1002.06 296.741C994.432 281.992 990.621 264.55 990.621 244.415C990.621 224.778 994.432 207.543 1002.06 192.711C1009.68 177.879 1020.41 166.32 1034.25 158.034C1048.17 149.748 1064.49 145.605 1083.22 145.605C1095.81 145.605 1107.54 147.635 1118.39 151.695C1129.33 155.673 1138.86 161.68 1146.98 169.717C1155.18 177.755 1161.56 187.864 1166.12 200.044C1170.68 212.142 1172.95 226.311 1172.95 242.551V257.093H1011.75V224.281H1123.11C1123.11 216.657 1121.46 209.904 1118.14 204.021C1114.83 198.138 1110.23 193.54 1104.35 190.225C1098.55 186.828 1091.79 185.129 1084.09 185.129C1076.05 185.129 1068.92 186.994 1062.71 190.722C1056.58 194.368 1051.77 199.298 1048.29 205.513C1044.81 211.644 1043.03 218.48 1042.95 226.021V257.217C1042.95 266.663 1044.69 274.825 1048.17 281.702C1051.73 288.58 1056.74 293.883 1063.21 297.612C1069.67 301.34 1077.33 303.205 1086.2 303.205C1092.08 303.205 1097.47 302.376 1102.36 300.719C1107.25 299.062 1111.43 296.576 1114.91 293.261C1118.39 289.947 1121.04 285.887 1122.86 281.081L1171.84 284.312C1169.35 296.079 1164.25 306.353 1156.55 315.136C1148.92 323.837 1139.06 330.631 1126.97 335.52C1114.95 340.326 1101.07 342.729 1085.33 342.729ZM1207.51 339V148.091H1258.84V181.401H1260.83C1264.31 169.552 1270.15 160.603 1278.35 154.554C1286.55 148.422 1296 145.357 1306.69 145.357C1309.34 145.357 1312.2 145.522 1315.27 145.854C1318.33 146.185 1321.02 146.641 1323.34 147.221V194.202C1320.86 193.457 1317.42 192.794 1313.03 192.214C1308.64 191.634 1304.62 191.344 1300.97 191.344C1293.18 191.344 1286.22 193.042 1280.09 196.44C1274.04 199.754 1269.24 204.394 1265.67 210.36C1262.19 216.326 1260.45 223.203 1260.45 230.992V339H1207.51ZM1509.56 202.53L1461.09 205.513C1460.26 201.37 1458.48 197.641 1455.74 194.327C1453.01 190.929 1449.41 188.237 1444.93 186.248C1440.54 184.176 1435.28 183.141 1429.15 183.141C1420.94 183.141 1414.02 184.881 1408.39 188.361C1402.76 191.758 1399.94 196.315 1399.94 202.033C1399.94 206.59 1401.76 210.443 1405.41 213.592C1409.05 216.74 1415.31 219.268 1424.17 221.173L1458.73 228.134C1477.29 231.945 1491.13 238.077 1500.24 246.528C1509.35 254.98 1513.91 266.083 1513.91 279.838C1513.91 292.35 1510.22 303.329 1502.85 312.775C1495.56 322.221 1485.53 329.595 1472.77 334.898C1460.09 340.119 1445.47 342.729 1428.9 342.729C1403.63 342.729 1383.49 337.467 1368.49 326.944C1353.58 316.338 1344.84 301.92 1342.27 283.691L1394.34 280.957C1395.92 288.663 1399.73 294.546 1405.78 298.606C1411.83 302.583 1419.58 304.572 1429.02 304.572C1438.3 304.572 1445.76 302.79 1451.39 299.227C1457.11 295.581 1460.01 290.9 1460.09 285.183C1460.01 280.377 1457.98 276.441 1454 273.375C1450.03 270.226 1443.9 267.823 1435.61 266.166L1402.55 259.579C1383.9 255.85 1370.03 249.387 1360.91 240.19C1351.88 230.992 1347.36 219.268 1347.36 205.016C1347.36 192.752 1350.68 182.188 1357.31 173.322C1364.02 164.456 1373.42 157.62 1385.52 152.814C1397.7 148.008 1411.95 145.605 1428.28 145.605C1452.39 145.605 1471.36 150.701 1485.2 160.893C1499.12 171.085 1507.24 184.964 1509.56 202.53ZM1578.2 342.232C1570 342.232 1562.95 339.331 1557.07 333.531C1551.27 327.648 1548.37 320.605 1548.37 312.402C1548.37 304.282 1551.27 297.321 1557.07 291.521C1562.95 285.721 1570 282.821 1578.2 282.821C1586.16 282.821 1593.12 285.721 1599.08 291.521C1605.05 297.321 1608.03 304.282 1608.03 312.402C1608.03 317.871 1606.62 322.884 1603.8 327.441C1601.07 331.915 1597.47 335.52 1592.99 338.254C1588.52 340.906 1583.59 342.232 1578.2 342.232ZM1578.2 208.496C1570 208.496 1562.95 205.596 1557.07 199.795C1551.27 193.995 1548.37 186.952 1548.37 178.666C1548.37 170.546 1551.27 163.627 1557.07 157.91C1562.95 152.11 1570 149.21 1578.2 149.21C1586.16 149.21 1593.12 152.11 1599.08 157.91C1605.05 163.627 1608.03 170.546 1608.03 178.666C1608.03 184.218 1606.62 189.272 1603.8 193.83C1601.07 198.304 1597.47 201.867 1592.99 204.518C1588.52 207.17 1583.59 208.496 1578.2 208.496ZM2247.78 84.4545V339H2193.96V135.538H2192.47L2134.18 172.079V124.352L2197.19 84.4545H2247.78ZM2308.28 339V300.222L2398.89 216.326C2406.59 208.869 2413.05 202.157 2418.28 196.191C2423.58 190.225 2427.6 184.384 2430.33 178.666C2433.07 172.866 2434.43 166.61 2434.43 159.898C2434.43 152.441 2432.73 146.019 2429.34 140.634C2425.94 135.165 2421.3 130.98 2415.42 128.08C2409.53 125.097 2402.86 123.606 2395.41 123.606C2387.62 123.606 2380.82 125.18 2375.02 128.329C2369.22 131.478 2364.75 135.993 2361.6 141.876C2358.45 147.759 2356.88 154.761 2356.88 162.881H2305.79C2305.79 146.227 2309.56 131.768 2317.1 119.504C2324.64 107.241 2335.21 97.7535 2348.8 91.0419C2362.39 84.3302 2378.05 80.9744 2395.78 80.9744C2414.01 80.9744 2429.88 84.206 2443.38 90.669C2456.97 97.0492 2467.54 105.915 2475.08 117.267C2482.62 128.619 2486.39 141.628 2486.39 156.294C2486.39 165.906 2484.48 175.393 2480.67 184.756C2476.94 194.12 2470.27 204.518 2460.66 215.953C2451.05 227.305 2437.5 240.935 2420.02 256.844L2382.85 293.261V295.001H2489.74V339H2308.28ZM2869.45 342.48C2856.36 342.397 2843.72 340.201 2831.54 335.893C2819.44 331.584 2808.59 324.582 2798.97 314.888C2789.36 305.193 2781.74 292.35 2776.11 276.358C2770.55 260.366 2767.78 240.728 2767.78 217.445C2767.86 196.067 2770.31 176.968 2775.11 160.147C2780 143.244 2786.96 128.909 2795.99 117.143C2805.11 105.377 2816 96.4278 2828.68 90.2961C2841.36 84.0817 2855.57 80.9744 2871.31 80.9744C2888.3 80.9744 2903.3 84.2888 2916.3 90.9176C2929.31 97.4635 2939.75 106.371 2947.63 117.64C2955.58 128.909 2960.39 141.545 2962.04 155.548H2908.97C2906.9 146.682 2902.55 139.722 2895.92 134.668C2889.29 129.613 2881.09 127.086 2871.31 127.086C2854.74 127.086 2842.14 134.295 2833.53 148.712C2824.99 163.13 2820.64 182.726 2820.48 207.501H2822.22C2826.03 199.961 2831.17 193.54 2837.63 188.237C2844.17 182.851 2851.59 178.749 2859.88 175.932C2868.25 173.032 2877.07 171.582 2886.35 171.582C2901.43 171.582 2914.85 175.145 2926.62 182.271C2938.39 189.314 2947.67 199.008 2954.46 211.354C2961.26 223.701 2964.65 237.828 2964.65 253.737C2964.65 270.972 2960.63 286.301 2952.6 299.724C2944.64 313.148 2933.5 323.671 2919.16 331.294C2904.91 338.834 2888.34 342.563 2869.45 342.48ZM2869.2 300.222C2877.48 300.222 2884.9 298.233 2891.45 294.256C2897.99 290.278 2903.13 284.893 2906.86 278.098C2910.59 271.304 2912.45 263.68 2912.45 255.229C2912.45 246.777 2910.59 239.195 2906.86 232.484C2903.21 225.772 2898.16 220.428 2891.69 216.45C2885.23 212.473 2877.86 210.484 2869.57 210.484C2863.36 210.484 2857.6 211.644 2852.29 213.964C2847.07 216.285 2842.48 219.516 2838.5 223.659C2834.6 227.802 2831.54 232.608 2829.3 238.077C2827.06 243.463 2825.95 249.221 2825.95 255.353C2825.95 263.556 2827.81 271.055 2831.54 277.849C2835.35 284.644 2840.49 290.071 2846.95 294.131C2853.5 298.192 2860.91 300.222 2869.2 300.222ZM3339.91 342.48C3321.35 342.48 3304.82 339.29 3290.32 332.91C3275.91 326.447 3264.51 317.581 3256.14 306.312C3247.86 294.96 3243.59 281.868 3243.34 267.036H3297.53C3297.86 273.251 3299.89 278.719 3303.62 283.442C3307.43 288.083 3312.49 291.687 3318.79 294.256C3325.08 296.824 3332.17 298.109 3340.04 298.109C3348.24 298.109 3355.49 296.659 3361.79 293.759C3368.09 290.858 3373.02 286.84 3376.58 281.702C3380.14 276.565 3381.92 270.641 3381.92 263.929C3381.92 257.134 3380.02 251.127 3376.21 245.907C3372.48 240.604 3367.09 236.461 3360.05 233.478C3353.09 230.495 3344.8 229.004 3335.19 229.004H3311.45V189.479H3335.19C3343.31 189.479 3350.48 188.071 3356.69 185.254C3362.99 182.436 3367.88 178.542 3371.36 173.57C3374.84 168.516 3376.58 162.633 3376.58 155.921C3376.58 149.541 3375.05 143.948 3371.98 139.142C3369 134.253 3364.77 130.442 3359.3 127.707C3353.92 124.973 3347.62 123.606 3340.41 123.606C3333.12 123.606 3326.45 124.932 3320.4 127.583C3314.35 130.152 3309.51 133.839 3305.86 138.645C3302.21 143.451 3300.27 149.085 3300.02 155.548H3248.44C3248.69 140.882 3252.87 127.956 3260.99 116.77C3269.11 105.584 3280.05 96.8421 3293.8 90.5447C3307.64 84.1645 3323.26 80.9744 3340.66 80.9744C3358.23 80.9744 3373.6 84.1645 3386.77 90.5447C3399.95 96.9249 3410.18 105.542 3417.47 116.397C3424.85 127.169 3428.49 139.266 3428.41 152.69C3428.49 166.942 3424.06 178.832 3415.11 188.361C3406.24 197.89 3394.69 203.938 3380.43 206.507V208.496C3399.16 210.899 3413.41 217.403 3423.19 228.009C3433.05 238.532 3437.94 251.707 3437.86 267.533C3437.94 282.034 3433.75 294.919 3425.3 306.188C3416.93 317.456 3405.37 326.322 3390.62 332.786C3375.88 339.249 3358.97 342.48 3339.91 342.48ZM3830.3 84.4545V339H3776.48V135.538H3774.99L3716.7 172.079V124.352L3779.71 84.4545H3830.3ZM3990.6 344.593C3969.22 344.51 3950.83 339.249 3935.42 328.808C3920.09 318.368 3908.28 303.246 3900 283.442C3891.79 263.639 3887.73 239.817 3887.82 211.976C3887.82 184.218 3891.92 160.561 3900.12 141.006C3908.41 121.451 3920.21 106.578 3935.54 96.3864C3950.95 86.1117 3969.31 80.9744 3990.6 80.9744C4011.9 80.9744 4030.21 86.1117 4045.54 96.3864C4060.95 106.661 4072.8 121.576 4081.09 141.131C4089.37 160.603 4093.47 184.218 4093.39 211.976C4093.39 239.9 4089.25 263.763 4080.96 283.567C4072.76 303.37 4060.99 318.492 4045.66 328.933C4030.33 339.373 4011.98 344.593 3990.6 344.593ZM3990.6 299.973C4005.19 299.973 4016.83 292.64 4025.53 277.974C4034.23 263.308 4038.54 241.308 4038.45 211.976C4038.45 192.67 4036.47 176.595 4032.49 163.751C4028.59 150.908 4023.04 141.255 4015.83 134.792C4008.71 128.329 4000.3 125.097 3990.6 125.097C3976.1 125.097 3964.5 132.348 3955.8 146.848C3947.1 161.348 3942.71 183.058 3942.63 211.976C3942.63 231.531 3944.57 247.854 3948.47 260.946C3952.45 273.955 3958.04 283.732 3965.25 290.278C3972.46 296.741 3980.91 299.973 3990.6 299.973ZM4467.75 342.48C4450.18 342.48 4434.52 339.249 4420.77 332.786C4407.1 326.322 4396.24 317.415 4388.21 306.063C4380.17 294.711 4375.98 281.702 4375.65 267.036H4427.85C4428.43 276.897 4432.58 284.893 4440.28 291.024C4447.99 297.156 4457.15 300.222 4467.75 300.222C4476.2 300.222 4483.66 298.357 4490.12 294.629C4496.67 290.817 4501.77 285.555 4505.41 278.844C4509.14 272.049 4511 264.26 4511 255.477C4511 246.528 4509.1 238.657 4505.29 231.862C4501.56 225.068 4496.38 219.765 4489.75 215.953C4483.12 212.142 4475.54 210.194 4467.01 210.112C4459.55 210.112 4452.3 211.644 4445.25 214.71C4438.29 217.776 4432.87 221.96 4428.97 227.263L4381.12 218.688L4393.18 84.4545H4548.79V128.453H4437.55L4430.96 192.214H4432.45C4436.93 185.916 4443.68 180.696 4452.71 176.553C4461.74 172.41 4471.85 170.339 4483.04 170.339C4498.37 170.339 4512.04 173.943 4524.05 181.152C4536.07 188.361 4545.56 198.263 4552.52 210.857C4559.48 223.369 4562.92 237.787 4562.83 254.11C4562.92 271.262 4558.94 286.508 4550.9 299.849C4542.95 313.106 4531.8 323.547 4517.47 331.17C4503.22 338.71 4486.64 342.48 4467.75 342.48ZM4954.13 84.4545V339H4900.31V135.538H4898.82L4840.53 172.079V124.352L4903.54 84.4545H4954.13ZM5112.32 342.48C5099.23 342.397 5086.59 340.201 5074.41 335.893C5062.31 331.584 5051.46 324.582 5041.85 314.888C5032.23 305.193 5024.61 292.35 5018.98 276.358C5013.42 260.366 5010.65 240.728 5010.65 217.445C5010.73 196.067 5013.18 176.968 5017.98 160.147C5022.87 143.244 5029.83 128.909 5038.86 117.143C5047.98 105.377 5058.87 96.4278 5071.55 90.2961C5084.23 84.0817 5098.44 80.9744 5114.18 80.9744C5131.17 80.9744 5146.17 84.2888 5159.18 90.9176C5172.18 97.4635 5182.62 106.371 5190.5 117.64C5198.45 128.909 5203.26 141.545 5204.91 155.548H5151.84C5149.77 146.682 5145.42 139.722 5138.79 134.668C5132.16 129.613 5123.96 127.086 5114.18 127.086C5097.61 127.086 5085.02 134.295 5076.4 148.712C5067.86 163.13 5063.51 182.726 5063.35 207.501H5065.09C5068.9 199.961 5074.04 193.54 5080.5 188.237C5087.05 182.851 5094.46 178.749 5102.75 175.932C5111.12 173.032 5119.94 171.582 5129.22 171.582C5144.3 171.582 5157.73 175.145 5169.49 182.271C5181.26 189.314 5190.54 199.008 5197.33 211.354C5204.13 223.701 5207.52 237.828 5207.52 253.737C5207.52 270.972 5203.51 286.301 5195.47 299.724C5187.51 313.148 5176.37 323.671 5162.03 331.294C5147.78 338.834 5131.21 342.563 5112.32 342.48ZM5112.07 300.222C5120.36 300.222 5127.77 298.233 5134.32 294.256C5140.86 290.278 5146 284.893 5149.73 278.098C5153.46 271.304 5155.32 263.68 5155.32 255.229C5155.32 246.777 5153.46 239.195 5149.73 232.484C5146.08 225.772 5141.03 220.428 5134.57 216.45C5128.1 212.473 5120.73 210.484 5112.44 210.484C5106.23 210.484 5100.47 211.644 5095.17 213.964C5089.95 216.285 5085.35 219.516 5081.37 223.659C5077.48 227.802 5074.41 232.608 5072.17 238.077C5069.94 243.463 5068.82 249.221 5068.82 255.353C5068.82 263.556 5070.68 271.055 5074.41 277.849C5078.22 284.644 5083.36 290.071 5089.82 294.131C5096.37 298.192 5103.78 300.222 5112.07 300.222ZM5583.66 342.48C5564.52 342.48 5547.49 339.373 5532.57 333.158C5517.74 326.861 5506.1 318.285 5497.65 307.43C5489.2 296.576 5484.97 284.271 5484.97 270.516C5484.97 259.91 5487.37 250.174 5492.18 241.308C5497.07 232.359 5503.7 224.943 5512.06 219.06C5520.43 213.094 5529.8 209.283 5540.15 207.626V205.886C5526.57 203.151 5515.55 196.564 5507.09 186.124C5498.64 175.6 5494.42 163.379 5494.42 149.458C5494.42 136.283 5498.27 124.559 5505.97 114.284C5513.68 103.927 5524.25 95.8063 5537.67 89.9233C5551.17 83.9574 5566.5 80.9744 5583.66 80.9744C5600.81 80.9744 5616.1 83.9574 5629.52 89.9233C5643.02 95.8892 5653.63 104.051 5661.34 114.408C5669.04 124.683 5672.94 136.366 5673.02 149.458C5672.94 163.461 5668.63 175.683 5660.09 186.124C5651.56 196.564 5640.62 203.151 5627.28 205.886V207.626C5637.47 209.283 5646.71 213.094 5655 219.06C5663.37 224.943 5670 232.359 5674.88 241.308C5679.86 250.174 5682.38 259.91 5682.47 270.516C5682.38 284.271 5678.12 296.576 5669.66 307.43C5661.21 318.285 5649.53 326.861 5634.61 333.158C5619.78 339.373 5602.8 342.48 5583.66 342.48ZM5583.66 302.956C5592.19 302.956 5599.65 301.423 5606.03 298.357C5612.41 295.209 5617.38 290.9 5620.94 285.431C5624.59 279.879 5626.41 273.499 5626.41 266.29C5626.41 258.916 5624.55 252.411 5620.82 246.777C5617.09 241.06 5612.04 236.585 5605.66 233.354C5599.27 230.039 5591.94 228.382 5583.66 228.382C5575.45 228.382 5568.12 230.039 5561.66 233.354C5555.19 236.585 5550.1 241.06 5546.37 246.777C5542.72 252.411 5540.9 258.916 5540.9 266.29C5540.9 273.499 5542.68 279.879 5546.24 285.431C5549.81 290.9 5554.82 295.209 5561.28 298.357C5567.75 301.423 5575.2 302.956 5583.66 302.956ZM5583.66 189.231C5590.78 189.231 5597.12 187.781 5602.67 184.881C5608.22 181.981 5612.57 177.962 5615.72 172.825C5618.87 167.687 5620.45 161.763 5620.45 155.051C5620.45 148.422 5618.87 142.622 5615.72 137.651C5612.57 132.596 5608.27 128.66 5602.8 125.843C5597.33 122.943 5590.95 121.493 5583.66 121.493C5576.45 121.493 5570.07 122.943 5564.52 125.843C5558.96 128.66 5554.61 132.596 5551.46 137.651C5548.4 142.622 5546.87 148.422 5546.87 155.051C5546.87 161.763 5548.44 167.687 5551.59 172.825C5554.74 177.962 5559.09 181.981 5564.64 184.881C5570.19 187.781 5576.53 189.231 5583.66 189.231ZM5959.26 294.256V251.873L6065.53 84.4545H6102.07V143.119H6080.44L6013.45 249.138V251.127H6164.46V294.256H5959.26ZM6081.44 339V281.33L6082.43 262.562V84.4545H6132.89V339H6081.44ZM6443.34 339V300.222L6533.94 216.326C6541.65 208.869 6548.11 202.157 6553.33 196.191C6558.64 190.225 6562.66 184.384 6565.39 178.666C6568.12 172.866 6569.49 166.61 6569.49 159.898C6569.49 152.441 6567.79 146.019 6564.4 140.634C6561 135.165 6556.36 130.98 6550.47 128.08C6544.59 125.097 6537.92 123.606 6530.46 123.606C6522.68 123.606 6515.88 125.18 6510.08 128.329C6504.28 131.478 6499.81 135.993 6496.66 141.876C6493.51 147.759 6491.93 154.761 6491.93 162.881H6440.85C6440.85 146.227 6444.62 131.768 6452.16 119.504C6459.7 107.241 6470.27 97.7535 6483.86 91.0419C6497.44 84.3302 6513.11 80.9744 6530.84 80.9744C6549.07 80.9744 6564.93 84.206 6578.44 90.669C6592.03 97.0492 6602.59 105.915 6610.13 117.267C6617.67 128.619 6621.44 141.628 6621.44 156.294C6621.44 165.906 6619.54 175.393 6615.73 184.756C6612 194.12 6605.33 204.518 6595.72 215.953C6586.1 227.305 6572.56 240.935 6555.07 256.844L6517.91 293.261V295.001H6624.8V339H6443.34ZM7017.56 84.4545V339H6963.74V135.538H6962.25L6903.96 172.079V124.352L6966.97 84.4545H7017.56Z" fill="#006CA9"/>
<path d="M108.132 1042.73C88.4943 1042.73 71.5909 1038.75 57.4219 1030.8C43.3357 1022.76 32.4811 1011.41 24.858 996.741C17.2348 981.992 13.4233 964.55 13.4233 944.415C13.4233 924.778 17.2348 907.543 24.858 892.711C32.4811 877.879 43.2114 866.32 57.049 858.034C70.9695 849.748 87.2929 845.605 106.019 845.605C118.614 845.605 130.339 847.635 141.193 851.695C152.131 855.673 161.66 861.68 169.78 869.717C177.983 877.755 184.363 887.864 188.92 900.044C193.478 912.142 195.756 926.311 195.756 942.551V957.093H34.5526V924.281H145.916C145.916 916.657 144.259 909.904 140.945 904.021C137.63 898.138 133.031 893.54 127.148 890.225C121.348 886.828 114.595 885.129 106.889 885.129C98.8518 885.129 91.7259 886.994 85.5114 890.722C79.3797 894.368 74.5739 899.298 71.0938 905.513C67.6136 911.644 65.8322 918.48 65.7493 926.021V957.217C65.7493 966.663 67.4893 974.825 70.9695 981.702C74.5324 988.58 79.5455 993.883 86.0085 997.612C92.4716 1001.34 100.136 1003.2 109.002 1003.2C114.885 1003.2 120.271 1002.38 125.16 1000.72C130.049 999.062 134.233 996.576 137.713 993.261C141.193 989.947 143.845 985.887 145.668 981.081L194.638 984.312C192.152 996.079 187.056 1006.35 179.35 1015.14C171.727 1023.84 161.867 1030.63 149.769 1035.52C137.755 1040.33 123.875 1042.73 108.132 1042.73ZM403.165 848.091L336.421 1039H276.762L210.019 848.091H265.949L305.597 984.685H307.586L347.11 848.091H403.165ZM511.111 1042.73C491.473 1042.73 474.569 1038.75 460.4 1030.8C446.314 1022.76 435.46 1011.41 427.836 996.741C420.213 981.992 416.402 964.55 416.402 944.415C416.402 924.778 420.213 907.543 427.836 892.711C435.46 877.879 446.19 866.32 460.028 858.034C473.948 849.748 490.271 845.605 508.998 845.605C521.592 845.605 533.317 847.635 544.172 851.695C555.109 855.673 564.638 861.68 572.758 869.717C580.961 877.755 587.342 887.864 591.899 900.044C596.456 912.142 598.735 926.311 598.735 942.551V957.093H437.531V924.281H548.895C548.895 916.657 547.238 909.904 543.923 904.021C540.609 898.138 536.01 893.54 530.127 890.225C524.327 886.828 517.574 885.129 509.868 885.129C501.83 885.129 494.704 886.994 488.49 890.722C482.358 894.368 477.552 899.298 474.072 905.513C470.592 911.644 468.811 918.48 468.728 926.021V957.217C468.728 966.663 470.468 974.825 473.948 981.702C477.511 988.58 482.524 993.883 488.987 997.612C495.45 1001.34 503.115 1003.2 511.981 1003.2C517.864 1003.2 523.25 1002.38 528.138 1000.72C533.027 999.062 537.211 996.576 540.692 993.261C544.172 989.947 546.823 985.887 548.646 981.081L597.616 984.312C595.131 996.079 590.035 1006.35 582.329 1015.14C574.706 1023.84 564.845 1030.63 552.748 1035.52C540.733 1040.33 526.854 1042.73 511.111 1042.73ZM686.235 928.631V1039H633.287V848.091H683.749V881.773H685.986C690.212 870.67 697.297 861.887 707.24 855.424C717.183 848.878 729.239 845.605 743.408 845.605C756.666 845.605 768.225 848.505 778.085 854.305C787.945 860.106 795.61 868.392 801.079 879.163C806.547 889.852 809.282 902.613 809.282 917.445V1039H756.334V926.891C756.417 915.207 753.434 906.093 747.385 899.547C741.337 892.918 733.009 889.604 722.403 889.604C715.277 889.604 708.98 891.137 703.511 894.202C698.125 897.268 693.899 901.743 690.834 907.626C687.851 913.426 686.318 920.428 686.235 928.631ZM961.879 772.523L879.847 1077.28H834.233L916.264 772.523H961.879ZM1073.65 1042.73C1054.34 1042.73 1037.64 1038.63 1023.56 1030.42C1009.55 1022.14 998.741 1010.62 991.118 995.871C983.495 981.04 979.683 963.846 979.683 944.291C979.683 924.571 983.495 907.336 991.118 892.587C998.741 877.755 1009.55 866.237 1023.56 858.034C1037.64 849.748 1054.34 845.605 1073.65 845.605C1092.95 845.605 1109.61 849.748 1123.61 858.034C1137.7 866.237 1148.55 877.755 1156.17 892.587C1163.8 907.336 1167.61 924.571 1167.61 944.291C1167.61 963.846 1163.8 981.04 1156.17 995.871C1148.55 1010.62 1137.7 1022.14 1123.61 1030.42C1109.61 1038.63 1092.95 1042.73 1073.65 1042.73ZM1073.89 1001.71C1082.68 1001.71 1090.01 999.227 1095.89 994.256C1101.78 989.201 1106.21 982.324 1109.19 973.624C1112.26 964.923 1113.79 955.022 1113.79 943.918C1113.79 932.815 1112.26 922.913 1109.19 914.213C1106.21 905.513 1101.78 898.635 1095.89 893.581C1090.01 888.527 1082.68 885.999 1073.89 885.999C1065.03 885.999 1057.57 888.527 1051.52 893.581C1045.56 898.635 1041.04 905.513 1037.97 914.213C1034.99 922.913 1033.5 932.815 1033.5 943.918C1033.5 955.022 1034.99 964.923 1037.97 973.624C1041.04 982.324 1045.56 989.201 1051.52 994.256C1057.57 999.227 1065.03 1001.71 1073.89 1001.71ZM1272.39 1042.11C1257.89 1042.11 1244.75 1038.38 1232.99 1030.92C1221.3 1023.38 1212.02 1012.32 1205.14 997.736C1198.35 983.07 1194.95 965.089 1194.95 943.794C1194.95 921.919 1198.47 903.731 1205.52 889.231C1212.56 874.647 1221.92 863.751 1233.61 856.543C1245.37 849.251 1258.26 845.605 1272.26 845.605C1282.95 845.605 1291.86 847.428 1298.98 851.074C1306.19 854.637 1311.99 859.111 1316.38 864.497C1320.86 869.8 1324.26 875.02 1326.58 880.158H1328.19V784.455H1381.01V1039H1328.81V1008.42H1326.58C1324.09 1013.73 1320.57 1018.99 1316.01 1024.21C1311.54 1029.35 1305.7 1033.61 1298.49 1037.01C1291.36 1040.41 1282.66 1042.11 1272.39 1042.11ZM1289.16 999.973C1297.7 999.973 1304.91 997.653 1310.79 993.013C1316.76 988.29 1321.31 981.702 1324.46 973.251C1327.69 964.799 1329.31 954.897 1329.31 943.545C1329.31 932.194 1327.74 922.333 1324.59 913.964C1321.44 905.596 1316.88 899.133 1310.92 894.575C1304.95 890.018 1297.7 887.739 1289.16 887.739C1280.46 887.739 1273.13 890.101 1267.17 894.824C1261.2 899.547 1256.68 906.093 1253.62 914.462C1250.55 922.83 1249.02 932.525 1249.02 943.545C1249.02 954.649 1250.55 964.468 1253.62 973.002C1256.77 981.454 1261.28 988.083 1267.17 992.888C1273.13 997.612 1280.46 999.973 1289.16 999.973ZM1494.9 1042.11C1480.39 1042.11 1467.26 1038.38 1455.5 1030.92C1443.81 1023.38 1434.53 1012.32 1427.65 997.736C1420.86 983.07 1417.46 965.089 1417.46 943.794C1417.46 921.919 1420.98 903.731 1428.03 889.231C1435.07 874.647 1444.43 863.751 1456.12 856.543C1467.88 849.251 1480.77 845.605 1494.77 845.605C1505.46 845.605 1514.37 847.428 1521.49 851.074C1528.7 854.637 1534.5 859.111 1538.89 864.497C1543.37 869.8 1546.77 875.02 1549.09 880.158H1550.7V784.455H1603.52V1039H1551.32V1008.42H1549.09C1546.6 1013.73 1543.08 1018.99 1538.52 1024.21C1534.05 1029.35 1528.2 1033.61 1521 1037.01C1513.87 1040.41 1505.17 1042.11 1494.9 1042.11ZM1511.67 999.973C1520.21 999.973 1527.42 997.653 1533.3 993.013C1539.27 988.29 1543.82 981.702 1546.97 973.251C1550.2 964.799 1551.82 954.897 1551.82 943.545C1551.82 932.194 1550.25 922.333 1547.1 913.964C1543.95 905.596 1539.39 899.133 1533.43 894.575C1527.46 890.018 1520.21 887.739 1511.67 887.739C1502.97 887.739 1495.64 890.101 1489.68 894.824C1483.71 899.547 1479.19 906.093 1476.13 914.462C1473.06 922.83 1471.53 932.525 1471.53 943.545C1471.53 954.649 1473.06 964.468 1476.13 973.002C1479.28 981.454 1483.79 988.083 1489.68 992.888C1495.64 997.612 1502.97 999.973 1511.67 999.973ZM1678.01 1042.23C1669.8 1042.23 1662.76 1039.33 1656.88 1033.53C1651.08 1027.65 1648.18 1020.61 1648.18 1012.4C1648.18 1004.28 1651.08 997.321 1656.88 991.521C1662.76 985.721 1669.8 982.821 1678.01 982.821C1685.96 982.821 1692.92 985.721 1698.89 991.521C1704.85 997.321 1707.83 1004.28 1707.83 1012.4C1707.83 1017.87 1706.43 1022.88 1703.61 1027.44C1700.87 1031.92 1697.27 1035.52 1692.8 1038.25C1688.32 1040.91 1683.39 1042.23 1678.01 1042.23ZM1678.01 908.496C1669.8 908.496 1662.76 905.596 1656.88 899.795C1651.08 893.995 1648.18 886.952 1648.18 878.666C1648.18 870.546 1651.08 863.627 1656.88 857.91C1662.76 852.11 1669.8 849.21 1678.01 849.21C1685.96 849.21 1692.92 852.11 1698.89 857.91C1704.85 863.627 1707.83 870.546 1707.83 878.666C1707.83 884.218 1706.43 889.272 1703.61 893.83C1700.87 898.304 1697.27 901.867 1692.8 904.518C1688.32 907.17 1683.39 908.496 1678.01 908.496ZM2243.34 1042.73C2223.7 1042.73 2206.8 1038.75 2192.63 1030.8C2178.54 1022.76 2167.69 1011.41 2160.06 996.741C2152.44 981.992 2148.63 964.55 2148.63 944.415C2148.63 924.778 2152.44 907.543 2160.06 892.711C2167.69 877.879 2178.42 866.32 2192.25 858.034C2206.17 849.748 2222.5 845.605 2241.22 845.605C2253.82 845.605 2265.54 847.635 2276.4 851.695C2287.34 855.673 2296.86 861.68 2304.98 869.717C2313.19 877.755 2319.57 887.864 2324.13 900.044C2328.68 912.142 2330.96 926.311 2330.96 942.551V957.093H2169.76V924.281H2281.12C2281.12 916.657 2279.46 909.904 2276.15 904.021C2272.84 898.138 2268.24 893.54 2262.35 890.225C2256.55 886.828 2249.8 885.129 2242.09 885.129C2234.06 885.129 2226.93 886.994 2220.72 890.722C2214.58 894.368 2209.78 899.298 2206.3 905.513C2202.82 911.644 2201.04 918.48 2200.95 926.021V957.217C2200.95 966.663 2202.69 974.825 2206.17 981.702C2209.74 988.58 2214.75 993.883 2221.21 997.612C2227.68 1001.34 2235.34 1003.2 2244.21 1003.2C2250.09 1003.2 2255.48 1002.38 2260.36 1000.72C2265.25 999.062 2269.44 996.576 2272.92 993.261C2276.4 989.947 2279.05 985.887 2280.87 981.081L2329.84 984.312C2327.36 996.079 2322.26 1006.35 2314.56 1015.14C2306.93 1023.84 2297.07 1030.63 2284.97 1035.52C2272.96 1040.33 2259.08 1042.73 2243.34 1042.73ZM2776.54 1042.73C2756.9 1042.73 2740 1038.75 2725.83 1030.8C2711.74 1022.76 2700.89 1011.41 2693.27 996.741C2685.64 981.992 2681.83 964.55 2681.83 944.415C2681.83 924.778 2685.64 907.543 2693.27 892.711C2700.89 877.879 2711.62 866.32 2725.46 858.034C2739.38 849.748 2755.7 845.605 2774.43 845.605C2787.02 845.605 2798.75 847.635 2809.6 851.695C2820.54 855.673 2830.07 861.68 2838.19 869.717C2846.39 877.755 2852.77 887.864 2857.33 900.044C2861.89 912.142 2864.16 926.311 2864.16 942.551V957.093H2702.96V924.281H2814.32C2814.32 916.657 2812.67 909.904 2809.35 904.021C2806.04 898.138 2801.44 893.54 2795.56 890.225C2789.76 886.828 2783 885.129 2775.3 885.129C2767.26 885.129 2760.13 886.994 2753.92 890.722C2747.79 894.368 2742.98 899.298 2739.5 905.513C2736.02 911.644 2734.24 918.48 2734.16 926.021V957.217C2734.16 966.663 2735.9 974.825 2739.38 981.702C2742.94 988.58 2747.95 993.883 2754.42 997.612C2760.88 1001.34 2768.54 1003.2 2777.41 1003.2C2783.29 1003.2 2788.68 1002.38 2793.57 1000.72C2798.46 999.062 2802.64 996.576 2806.12 993.261C2809.6 989.947 2812.25 985.887 2814.08 981.081L2863.05 984.312C2860.56 996.079 2855.46 1006.35 2847.76 1015.14C2840.14 1023.84 2830.27 1030.63 2818.18 1035.52C2806.16 1040.33 2792.28 1042.73 2776.54 1042.73ZM3309 1042.73C3289.69 1042.73 3273 1038.63 3258.91 1030.42C3244.91 1022.14 3234.09 1010.62 3226.47 995.871C3218.85 981.04 3215.03 963.846 3215.03 944.291C3215.03 924.571 3218.85 907.336 3226.47 892.587C3234.09 877.755 3244.91 866.237 3258.91 858.034C3273 849.748 3289.69 845.605 3309 845.605C3328.3 845.605 3344.96 849.748 3358.96 858.034C3373.05 866.237 3383.9 877.755 3391.53 892.587C3399.15 907.336 3402.96 924.571 3402.96 944.291C3402.96 963.846 3399.15 981.04 3391.53 995.871C3383.9 1010.62 3373.05 1022.14 3358.96 1030.42C3344.96 1038.63 3328.3 1042.73 3309 1042.73ZM3309.25 1001.71C3318.03 1001.71 3325.36 999.227 3331.25 994.256C3337.13 989.201 3341.56 982.324 3344.54 973.624C3347.61 964.923 3349.14 955.022 3349.14 943.918C3349.14 932.815 3347.61 922.913 3344.54 914.213C3341.56 905.513 3337.13 898.635 3331.25 893.581C3325.36 888.527 3318.03 885.999 3309.25 885.999C3300.38 885.999 3292.92 888.527 3286.87 893.581C3280.91 898.635 3276.39 905.513 3273.33 914.213C3270.34 922.913 3268.85 932.815 3268.85 943.918C3268.85 955.022 3270.34 964.923 3273.33 973.624C3276.39 982.324 3280.91 989.201 3286.87 994.256C3292.92 999.227 3300.38 1001.71 3309.25 1001.71ZM3929.42 1042.73C3909.78 1042.73 3892.88 1038.75 3878.71 1030.8C3864.62 1022.76 3853.77 1011.41 3846.15 996.741C3838.52 981.992 3834.71 964.55 3834.71 944.415C3834.71 924.778 3838.52 907.543 3846.15 892.711C3853.77 877.879 3864.5 866.32 3878.34 858.034C3892.26 849.748 3908.58 845.605 3927.31 845.605C3939.9 845.605 3951.63 847.635 3962.48 851.695C3973.42 855.673 3982.95 861.68 3991.07 869.717C3999.27 877.755 4005.65 887.864 4010.21 900.044C4014.77 912.142 4017.05 926.311 4017.05 942.551V957.093H3855.84V924.281H3967.21C3967.21 916.657 3965.55 909.904 3962.23 904.021C3958.92 898.138 3954.32 893.54 3948.44 890.225C3942.64 886.828 3935.88 885.129 3928.18 885.129C3920.14 885.129 3913.01 886.994 3906.8 890.722C3900.67 894.368 3895.86 899.298 3892.38 905.513C3888.9 911.644 3887.12 918.48 3887.04 926.021V957.217C3887.04 966.663 3888.78 974.825 3892.26 981.702C3895.82 988.58 3900.83 993.883 3907.3 997.612C3913.76 1001.34 3921.43 1003.2 3930.29 1003.2C3936.17 1003.2 3941.56 1002.38 3946.45 1000.72C3951.34 999.062 3955.52 996.576 3959 993.261C3962.48 989.947 3965.13 985.887 3966.96 981.081L4015.93 984.312C4013.44 996.079 4008.35 1006.35 4000.64 1015.14C3993.02 1023.84 3983.16 1030.63 3971.06 1035.52C3959.04 1040.33 3945.16 1042.73 3929.42 1042.73ZM4461.88 1042.73C4442.57 1042.73 4425.88 1038.63 4411.79 1030.42C4397.79 1022.14 4386.97 1010.62 4379.35 995.871C4371.73 981.04 4367.92 963.846 4367.92 944.291C4367.92 924.571 4371.73 907.336 4379.35 892.587C4386.97 877.755 4397.79 866.237 4411.79 858.034C4425.88 849.748 4442.57 845.605 4461.88 845.605C4481.18 845.605 4497.84 849.748 4511.84 858.034C4525.93 866.237 4536.78 877.755 4544.41 892.587C4552.03 907.336 4555.84 924.571 4555.84 944.291C4555.84 963.846 4552.03 981.04 4544.41 995.871C4536.78 1010.62 4525.93 1022.14 4511.84 1030.42C4497.84 1038.63 4481.18 1042.73 4461.88 1042.73ZM4462.13 1001.71C4470.91 1001.71 4478.24 999.227 4484.13 994.256C4490.01 989.201 4494.44 982.324 4497.43 973.624C4500.49 964.923 4502.02 955.022 4502.02 943.918C4502.02 932.815 4500.49 922.913 4497.43 914.213C4494.44 905.513 4490.01 898.635 4484.13 893.581C4478.24 888.527 4470.91 885.999 4462.13 885.999C4453.26 885.999 4445.8 888.527 4439.75 893.581C4433.79 898.635 4429.27 905.513 4426.21 914.213C4423.22 922.913 4421.73 932.815 4421.73 943.918C4421.73 955.022 4423.22 964.923 4426.21 973.624C4429.27 982.324 4433.79 989.201 4439.75 994.256C4445.8 999.227 4453.26 1001.71 4462.13 1001.71ZM5001.3 1042.73C4981.66 1042.73 4964.75 1038.75 4950.59 1030.8C4936.5 1022.76 4925.65 1011.41 4918.02 996.741C4910.4 981.992 4906.59 964.55 4906.59 944.415C4906.59 924.778 4910.4 907.543 4918.02 892.711C4925.65 877.879 4936.38 866.32 4950.21 858.034C4964.13 849.748 4980.46 845.605 4999.18 845.605C5011.78 845.605 5023.5 847.635 5034.36 851.695C5045.29 855.673 5054.82 861.68 5062.94 869.717C5071.15 877.755 5077.53 887.864 5082.08 900.044C5086.64 912.142 5088.92 926.311 5088.92 942.551V957.093H4927.72V924.281H5039.08C5039.08 916.657 5037.42 909.904 5034.11 904.021C5030.79 898.138 5026.2 893.54 5020.31 890.225C5014.51 886.828 5007.76 885.129 5000.05 885.129C4992.02 885.129 4984.89 886.994 4978.68 890.722C4972.54 894.368 4967.74 899.298 4964.26 905.513C4960.78 911.644 4959 918.48 4958.91 926.021V957.217C4958.91 966.663 4960.65 974.825 4964.13 981.702C4967.7 988.58 4972.71 993.883 4979.17 997.612C4985.64 1001.34 4993.3 1003.2 5002.17 1003.2C5008.05 1003.2 5013.44 1002.38 5018.32 1000.72C5023.21 999.062 5027.4 996.576 5030.88 993.261C5034.36 989.947 5037.01 985.887 5038.83 981.081L5087.8 984.312C5085.32 996.079 5080.22 1006.35 5072.51 1015.14C5064.89 1023.84 5055.03 1030.63 5042.93 1035.52C5030.92 1040.33 5017.04 1042.73 5001.3 1042.73ZM5534.5 1042.73C5514.86 1042.73 5497.96 1038.75 5483.79 1030.8C5469.7 1022.76 5458.85 1011.41 5451.23 996.741C5443.6 981.992 5439.79 964.55 5439.79 944.415C5439.79 924.778 5443.6 907.543 5451.23 892.711C5458.85 877.879 5469.58 866.32 5483.42 858.034C5497.34 849.748 5513.66 845.605 5532.39 845.605C5544.98 845.605 5556.71 847.635 5567.56 851.695C5578.5 855.673 5588.03 861.68 5596.15 869.717C5604.35 877.755 5610.73 887.864 5615.29 900.044C5619.84 912.142 5622.12 926.311 5622.12 942.551V957.093H5460.92V924.281H5572.28C5572.28 916.657 5570.63 909.904 5567.31 904.021C5564 898.138 5559.4 893.54 5553.52 890.225C5547.72 886.828 5540.96 885.129 5533.26 885.129C5525.22 885.129 5518.09 886.994 5511.88 890.722C5505.75 894.368 5500.94 899.298 5497.46 905.513C5493.98 911.644 5492.2 918.48 5492.12 926.021V957.217C5492.12 966.663 5493.86 974.825 5497.34 981.702C5500.9 988.58 5505.91 993.883 5512.38 997.612C5518.84 1001.34 5526.5 1003.2 5535.37 1003.2C5541.25 1003.2 5546.64 1002.38 5551.53 1000.72C5556.42 999.062 5560.6 996.576 5564.08 993.261C5567.56 989.947 5570.21 985.887 5572.03 981.081L5621 984.312C5618.52 996.079 5613.42 1006.35 5605.72 1015.14C5598.09 1023.84 5588.23 1030.63 5576.14 1035.52C5564.12 1040.33 5550.24 1042.73 5534.5 1042.73ZM6067.7 1042.73C6048.06 1042.73 6031.16 1038.75 6016.99 1030.8C6002.91 1022.76 5992.05 1011.41 5984.43 996.741C5976.81 981.992 5972.99 964.55 5972.99 944.415C5972.99 924.778 5976.81 907.543 5984.43 892.711C5992.05 877.879 6002.78 866.32 6016.62 858.034C6030.54 849.748 6046.86 845.605 6065.59 845.605C6078.18 845.605 6089.91 847.635 6100.76 851.695C6111.7 855.673 6121.23 861.68 6129.35 869.717C6137.55 877.755 6143.93 887.864 6148.49 900.044C6153.05 912.142 6155.33 926.311 6155.33 942.551V957.093H5994.12V924.281H6105.49C6105.49 916.657 6103.83 909.904 6100.51 904.021C6097.2 898.138 6092.6 893.54 6086.72 890.225C6080.92 886.828 6074.17 885.129 6066.46 885.129C6058.42 885.129 6051.3 886.994 6045.08 890.722C6038.95 894.368 6034.14 899.298 6030.66 905.513C6027.18 911.644 6025.4 918.48 6025.32 926.021V957.217C6025.32 966.663 6027.06 974.825 6030.54 981.702C6034.1 988.58 6039.12 993.883 6045.58 997.612C6052.04 1001.34 6059.71 1003.2 6068.57 1003.2C6074.46 1003.2 6079.84 1002.38 6084.73 1000.72C6089.62 999.062 6093.8 996.576 6097.28 993.261C6100.76 989.947 6103.42 985.887 6105.24 981.081L6154.21 984.312C6151.72 996.079 6146.63 1006.35 6138.92 1015.14C6131.3 1023.84 6121.44 1030.63 6109.34 1035.52C6097.32 1040.33 6083.45 1042.73 6067.7 1042.73ZM6519.9 1042.73C6500.26 1042.73 6483.36 1038.75 6469.19 1030.8C6455.1 1022.76 6444.25 1011.41 6436.63 996.741C6429 981.992 6425.19 964.55 6425.19 944.415C6425.19 924.778 6429 907.543 6436.63 892.711C6444.25 877.879 6454.98 866.32 6468.82 858.034C6482.74 849.748 6499.06 845.605 6517.79 845.605C6530.38 845.605 6542.11 847.635 6552.96 851.695C6563.9 855.673 6573.43 861.68 6581.55 869.717C6589.75 877.755 6596.13 887.864 6600.69 900.044C6605.25 912.142 6607.52 926.311 6607.52 942.551V957.093H6446.32V924.281H6557.68C6557.68 916.657 6556.03 909.904 6552.71 904.021C6549.4 898.138 6544.8 893.54 6538.92 890.225C6533.12 886.828 6526.36 885.129 6518.66 885.129C6510.62 885.129 6503.49 886.994 6497.28 890.722C6491.15 894.368 6486.34 899.298 6482.86 905.513C6479.38 911.644 6477.6 918.48 6477.52 926.021V957.217C6477.52 966.663 6479.26 974.825 6482.74 981.702C6486.3 988.58 6491.31 993.883 6497.78 997.612C6504.24 1001.34 6511.9 1003.2 6520.77 1003.2C6526.65 1003.2 6532.04 1002.38 6536.93 1000.72C6541.82 999.062 6546 996.576 6549.48 993.261C6552.96 989.947 6555.61 985.887 6557.44 981.081L6606.41 984.312C6603.92 996.079 6598.82 1006.35 6591.12 1015.14C6583.49 1023.84 6573.63 1030.63 6561.54 1035.52C6549.52 1040.33 6535.64 1042.73 6519.9 1042.73Z" fill="#006CA9"/>
<path d="M179.972 1572.53L131.499 1575.51C130.67 1571.37 128.888 1567.64 126.154 1564.33C123.42 1560.93 119.815 1558.24 115.341 1556.25C110.949 1554.18 105.688 1553.14 99.5561 1553.14C91.353 1553.14 84.4342 1554.88 78.7997 1558.36C73.1652 1561.76 70.348 1566.32 70.348 1572.03C70.348 1576.59 72.1709 1580.44 75.8168 1583.59C79.4626 1586.74 85.7185 1589.27 94.5845 1591.17L129.137 1598.13C147.698 1601.95 161.535 1608.08 170.65 1616.53C179.764 1624.98 184.322 1636.08 184.322 1649.84C184.322 1662.35 180.634 1673.33 173.26 1682.77C165.968 1692.22 155.942 1699.6 143.182 1704.9C130.504 1710.12 115.88 1712.73 99.3075 1712.73C74.0353 1712.73 53.9003 1707.47 38.9027 1696.94C23.9879 1686.34 15.2462 1671.92 12.6776 1653.69L64.755 1650.96C66.3293 1658.66 70.1409 1664.55 76.1896 1668.61C82.2384 1672.58 89.9858 1674.57 99.4318 1674.57C108.712 1674.57 116.17 1672.79 121.804 1669.23C127.521 1665.58 130.421 1660.9 130.504 1655.18C130.421 1650.38 128.391 1646.44 124.414 1643.38C120.437 1640.23 114.305 1637.82 106.019 1636.17L72.9581 1629.58C54.3146 1625.85 40.4356 1619.39 31.321 1610.19C22.2893 1600.99 17.7734 1589.27 17.7734 1575.02C17.7734 1562.75 21.0878 1552.19 27.7166 1543.32C34.4283 1534.46 43.8329 1527.62 55.9304 1522.81C68.1108 1518.01 82.3627 1515.61 98.6861 1515.61C122.798 1515.61 141.773 1520.7 155.611 1530.89C169.531 1541.08 177.652 1554.96 179.972 1572.53ZM319.207 1518.09V1557.86H204.239V1518.09H319.207ZM230.34 1472.35H283.287V1650.34C283.287 1655.22 284.033 1659.04 285.525 1661.77C287.016 1664.42 289.088 1666.29 291.739 1667.36C294.474 1668.44 297.622 1668.98 301.185 1668.98C303.671 1668.98 306.157 1668.77 308.643 1668.36C311.128 1667.86 313.034 1667.49 314.36 1667.24L322.687 1706.64C320.036 1707.47 316.307 1708.42 311.501 1709.5C306.695 1710.66 300.854 1711.36 293.976 1711.61C281.216 1712.11 270.03 1710.41 260.418 1706.51C250.889 1702.62 243.473 1696.57 238.17 1688.37C232.867 1680.16 230.257 1669.81 230.34 1657.3V1472.35ZM438.65 1712.73C419.012 1712.73 402.108 1708.75 387.939 1700.8C373.853 1692.76 362.999 1681.41 355.376 1666.74C347.752 1651.99 343.941 1634.55 343.941 1614.42C343.941 1594.78 347.752 1577.54 355.376 1562.71C362.999 1547.88 373.729 1536.32 387.567 1528.03C401.487 1519.75 417.81 1515.61 436.537 1515.61C449.131 1515.61 460.856 1517.64 471.711 1521.7C482.648 1525.67 492.177 1531.68 500.297 1539.72C508.501 1547.75 514.881 1557.86 519.438 1570.04C523.995 1582.14 526.274 1596.31 526.274 1612.55V1627.09H365.07V1594.28H476.434C476.434 1586.66 474.777 1579.9 471.462 1574.02C468.148 1568.14 463.549 1563.54 457.666 1560.23C451.866 1556.83 445.113 1555.13 437.407 1555.13C429.369 1555.13 422.243 1556.99 416.029 1560.72C409.897 1564.37 405.091 1569.3 401.611 1575.51C398.131 1581.64 396.35 1588.48 396.267 1596.02V1627.22C396.267 1636.66 398.007 1644.83 401.487 1651.7C405.05 1658.58 410.063 1663.88 416.526 1667.61C422.989 1671.34 430.654 1673.2 439.52 1673.2C445.403 1673.2 450.789 1672.38 455.677 1670.72C460.566 1669.06 464.751 1666.58 468.231 1663.26C471.711 1659.95 474.362 1655.89 476.185 1651.08L525.155 1654.31C522.67 1666.08 517.574 1676.35 509.868 1685.14C502.245 1693.84 492.384 1700.63 480.287 1705.52C468.272 1710.33 454.393 1712.73 438.65 1712.73ZM560.827 1780.59V1518.09H613.028V1550.16H615.39C617.71 1545.02 621.066 1539.8 625.457 1534.5C629.932 1529.11 635.732 1524.64 642.858 1521.07C650.067 1517.43 659.015 1515.61 669.704 1515.61C683.625 1515.61 696.468 1519.25 708.234 1526.54C720 1533.75 729.405 1544.65 736.448 1559.23C743.491 1573.73 747.013 1591.92 747.013 1613.79C747.013 1635.09 743.574 1653.07 736.697 1667.74C729.902 1682.32 720.622 1693.38 708.856 1700.92C697.172 1708.38 684.081 1712.11 669.58 1712.11C659.305 1712.11 650.564 1710.41 643.355 1707.01C636.229 1703.61 630.387 1699.35 625.83 1694.21C621.273 1688.99 617.793 1683.73 615.39 1678.42H613.774V1780.59H560.827ZM612.655 1613.55C612.655 1624.9 614.23 1634.8 617.378 1643.25C620.527 1651.7 625.084 1658.29 631.05 1663.01C637.016 1667.65 644.266 1669.97 652.801 1669.97C661.418 1669.97 668.71 1667.61 674.676 1662.89C680.642 1658.08 685.158 1651.45 688.224 1643C691.372 1634.47 692.947 1624.65 692.947 1613.55C692.947 1602.53 691.414 1592.83 688.348 1584.46C685.282 1576.09 680.766 1569.55 674.8 1564.82C668.834 1560.1 661.501 1557.74 652.801 1557.74C644.184 1557.74 636.892 1560.02 630.926 1564.58C625.043 1569.13 620.527 1575.6 617.378 1583.96C614.23 1592.33 612.655 1602.19 612.655 1613.55ZM941.153 1572.53L892.68 1575.51C891.852 1571.37 890.07 1567.64 887.336 1564.33C884.601 1560.93 880.997 1558.24 876.523 1556.25C872.131 1554.18 866.869 1553.14 860.738 1553.14C852.535 1553.14 845.616 1554.88 839.981 1558.36C834.347 1561.76 831.53 1566.32 831.53 1572.03C831.53 1576.59 833.353 1580.44 836.998 1583.59C840.644 1586.74 846.9 1589.27 855.766 1591.17L890.319 1598.13C908.879 1601.95 922.717 1608.08 931.832 1616.53C940.946 1624.98 945.503 1636.08 945.503 1649.84C945.503 1662.35 941.816 1673.33 934.442 1682.77C927.15 1692.22 917.124 1699.6 904.363 1704.9C891.686 1710.12 877.061 1712.73 860.489 1712.73C835.217 1712.73 815.082 1707.47 800.084 1696.94C785.17 1686.34 776.428 1671.92 773.859 1653.69L825.937 1650.96C827.511 1658.66 831.323 1664.55 837.371 1668.61C843.42 1672.58 851.167 1674.57 860.613 1674.57C869.894 1674.57 877.351 1672.79 882.986 1669.23C888.703 1665.58 891.603 1660.9 891.686 1655.18C891.603 1650.38 889.573 1646.44 885.596 1643.38C881.618 1640.23 875.487 1637.82 867.201 1636.17L834.14 1629.58C815.496 1625.85 801.617 1619.39 792.503 1610.19C783.471 1600.99 778.955 1589.27 778.955 1575.02C778.955 1562.75 782.269 1552.19 788.898 1543.32C795.61 1534.46 805.015 1527.62 817.112 1522.81C829.292 1518.01 843.544 1515.61 859.868 1515.61C883.98 1515.61 902.955 1520.7 916.792 1530.89C930.713 1541.08 938.833 1554.96 941.153 1572.53ZM1009.79 1712.23C1001.59 1712.23 994.546 1709.33 988.663 1703.53C982.863 1697.65 979.963 1690.61 979.963 1682.4C979.963 1674.28 982.863 1667.32 988.663 1661.52C994.546 1655.72 1001.59 1652.82 1009.79 1652.82C1017.75 1652.82 1024.71 1655.72 1030.67 1661.52C1036.64 1667.32 1039.62 1674.28 1039.62 1682.4C1039.62 1687.87 1038.21 1692.88 1035.4 1697.44C1032.66 1701.92 1029.06 1705.52 1024.58 1708.25C1020.11 1710.91 1015.18 1712.23 1009.79 1712.23ZM1009.79 1578.5C1001.59 1578.5 994.546 1575.6 988.663 1569.8C982.863 1564 979.963 1556.95 979.963 1548.67C979.963 1540.55 982.863 1533.63 988.663 1527.91C994.546 1522.11 1001.59 1519.21 1009.79 1519.21C1017.75 1519.21 1024.71 1522.11 1030.67 1527.91C1036.64 1533.63 1039.62 1540.55 1039.62 1548.67C1039.62 1554.22 1038.21 1559.27 1035.4 1563.83C1032.66 1568.3 1029.06 1571.87 1024.58 1574.52C1020.11 1577.17 1015.18 1578.5 1009.79 1578.5ZM2206.52 1712.11C2192.02 1712.11 2178.88 1708.38 2167.12 1700.92C2155.43 1693.38 2146.15 1682.32 2139.28 1667.74C2132.48 1653.07 2129.08 1635.09 2129.08 1613.79C2129.08 1591.92 2132.61 1573.73 2139.65 1559.23C2146.69 1544.65 2156.05 1533.75 2167.74 1526.54C2179.5 1519.25 2192.39 1515.61 2206.39 1515.61C2217.08 1515.61 2225.99 1517.43 2233.11 1521.07C2240.32 1524.64 2246.12 1529.11 2250.51 1534.5C2254.99 1539.8 2258.39 1545.02 2260.71 1550.16H2262.32V1454.45H2315.15V1709H2262.94V1678.42H2260.71C2258.22 1683.73 2254.7 1688.99 2250.14 1694.21C2245.67 1699.35 2239.83 1703.61 2232.62 1707.01C2225.49 1710.41 2216.79 1712.11 2206.52 1712.11ZM2223.3 1669.97C2231.83 1669.97 2239.04 1667.65 2244.92 1663.01C2250.89 1658.29 2255.45 1651.7 2258.59 1643.25C2261.83 1634.8 2263.44 1624.9 2263.44 1613.55C2263.44 1602.19 2261.87 1592.33 2258.72 1583.96C2255.57 1575.6 2251.01 1569.13 2245.05 1564.58C2239.08 1560.02 2231.83 1557.74 2223.3 1557.74C2214.6 1557.74 2207.26 1560.1 2201.3 1564.82C2195.33 1569.55 2190.81 1576.09 2187.75 1584.46C2184.68 1592.83 2183.15 1602.53 2183.15 1613.55C2183.15 1624.65 2184.68 1634.47 2187.75 1643C2190.9 1651.45 2195.41 1658.08 2201.3 1662.89C2207.26 1667.61 2214.6 1669.97 2223.3 1669.97ZM2753.05 1712.11C2738.55 1712.11 2725.42 1708.38 2713.65 1700.92C2701.97 1693.38 2692.69 1682.32 2685.81 1667.74C2679.01 1653.07 2675.62 1635.09 2675.62 1613.79C2675.62 1591.92 2679.14 1573.73 2686.18 1559.23C2693.22 1544.65 2702.59 1533.75 2714.27 1526.54C2726.04 1519.25 2738.92 1515.61 2752.93 1515.61C2763.61 1515.61 2772.52 1517.43 2779.65 1521.07C2786.86 1524.64 2792.66 1529.11 2797.05 1534.5C2801.52 1539.8 2804.92 1545.02 2807.24 1550.16H2808.86V1454.45H2861.68V1709H2809.48V1678.42H2807.24C2804.75 1683.73 2801.23 1688.99 2796.68 1694.21C2792.2 1699.35 2786.36 1703.61 2779.15 1707.01C2772.02 1710.41 2763.32 1712.11 2753.05 1712.11ZM2769.83 1669.97C2778.36 1669.97 2785.57 1667.65 2791.46 1663.01C2797.42 1658.29 2801.98 1651.7 2805.13 1643.25C2808.36 1634.8 2809.97 1624.9 2809.97 1613.55C2809.97 1602.19 2808.4 1592.33 2805.25 1583.96C2802.1 1575.6 2797.55 1569.13 2791.58 1564.58C2785.61 1560.02 2778.36 1557.74 2769.83 1557.74C2761.13 1557.74 2753.8 1560.1 2747.83 1564.82C2741.86 1569.55 2737.35 1576.09 2734.28 1584.46C2731.22 1592.83 2729.68 1602.53 2729.68 1613.55C2729.68 1624.65 2731.22 1634.47 2734.28 1643C2737.43 1651.45 2741.95 1658.08 2747.83 1662.89C2753.8 1667.61 2761.13 1669.97 2769.83 1669.97ZM3351.66 1627.71V1518.09H3404.61V1709H3353.77V1674.32H3351.78C3347.48 1685.51 3340.31 1694.5 3330.28 1701.29C3320.34 1708.09 3308.2 1711.49 3293.87 1711.49C3281.1 1711.49 3269.88 1708.59 3260.18 1702.79C3250.49 1696.99 3242.91 1688.74 3237.44 1678.05C3232.05 1667.36 3229.32 1654.56 3229.23 1639.65V1518.09H3282.18V1630.2C3282.27 1641.47 3285.29 1650.38 3291.26 1656.92C3297.22 1663.47 3305.22 1666.74 3315.24 1666.74C3321.62 1666.74 3327.59 1665.29 3333.14 1662.39C3338.69 1659.41 3343.17 1655.02 3346.56 1649.22C3350.04 1643.42 3351.74 1636.25 3351.66 1627.71ZM3922.34 1712.11C3907.84 1712.11 3894.7 1708.38 3882.94 1700.92C3871.25 1693.38 3861.97 1682.32 3855.1 1667.74C3848.3 1653.07 3844.9 1635.09 3844.9 1613.79C3844.9 1591.92 3848.43 1573.73 3855.47 1559.23C3862.51 1544.65 3871.88 1533.75 3883.56 1526.54C3895.32 1519.25 3908.21 1515.61 3922.21 1515.61C3932.9 1515.61 3941.81 1517.43 3948.93 1521.07C3956.14 1524.64 3961.94 1529.11 3966.34 1534.5C3970.81 1539.8 3974.21 1545.02 3976.53 1550.16H3978.14V1454.45H4030.97V1709H3978.76V1678.42H3976.53C3974.04 1683.73 3970.52 1688.99 3965.96 1694.21C3961.49 1699.35 3955.65 1703.61 3948.44 1707.01C3941.31 1710.41 3932.61 1712.11 3922.34 1712.11ZM3939.12 1669.97C3947.65 1669.97 3954.86 1667.65 3960.74 1663.01C3966.71 1658.29 3971.27 1651.7 3974.41 1643.25C3977.65 1634.8 3979.26 1624.9 3979.26 1613.55C3979.26 1602.19 3977.69 1592.33 3974.54 1583.96C3971.39 1575.6 3966.83 1569.13 3960.87 1564.58C3954.9 1560.02 3947.65 1557.74 3939.12 1557.74C3930.42 1557.74 3923.08 1560.1 3917.12 1564.82C3911.15 1569.55 3906.63 1576.09 3903.57 1584.46C3900.5 1592.83 3898.97 1602.53 3898.97 1613.55C3898.97 1624.65 3900.5 1634.47 3903.57 1643C3906.72 1651.45 3911.23 1658.08 3917.12 1662.89C3923.08 1667.61 3930.42 1669.97 3939.12 1669.97ZM4520.95 1627.71V1518.09H4573.89V1709H4523.06V1674.32H4521.07C4516.76 1685.51 4509.6 1694.5 4499.57 1701.29C4489.63 1708.09 4477.49 1711.49 4463.15 1711.49C4450.39 1711.49 4439.16 1708.59 4429.47 1702.79C4419.78 1696.99 4412.19 1688.74 4406.72 1678.05C4401.34 1667.36 4398.6 1654.56 4398.52 1639.65V1518.09H4451.47V1630.2C4451.55 1641.47 4454.58 1650.38 4460.54 1656.92C4466.51 1663.47 4474.5 1666.74 4484.53 1666.74C4490.91 1666.74 4496.88 1665.29 4502.43 1662.39C4507.98 1659.41 4512.45 1655.02 4515.85 1649.22C4519.33 1643.42 4521.03 1636.25 4520.95 1627.71ZM5010.62 1712.11C4996.12 1712.11 4982.98 1708.38 4971.22 1700.92C4959.53 1693.38 4950.25 1682.32 4943.38 1667.74C4936.58 1653.07 4933.19 1635.09 4933.19 1613.79C4933.19 1591.92 4936.71 1573.73 4943.75 1559.23C4950.79 1544.65 4960.16 1533.75 4971.84 1526.54C4983.61 1519.25 4996.49 1515.61 5010.49 1515.61C5021.18 1515.61 5030.09 1517.43 5037.22 1521.07C5044.42 1524.64 5050.22 1529.11 5054.62 1534.5C5059.09 1539.8 5062.49 1545.02 5064.81 1550.16H5066.42V1454.45H5119.25V1709H5067.05V1678.42H5064.81C5062.32 1683.73 5058.8 1688.99 5054.24 1694.21C5049.77 1699.35 5043.93 1703.61 5036.72 1707.01C5029.59 1710.41 5020.89 1712.11 5010.62 1712.11ZM5027.4 1669.97C5035.93 1669.97 5043.14 1667.65 5049.02 1663.01C5054.99 1658.29 5059.55 1651.7 5062.7 1643.25C5065.93 1634.8 5067.54 1624.9 5067.54 1613.55C5067.54 1602.19 5065.97 1592.33 5062.82 1583.96C5059.67 1575.6 5055.11 1569.13 5049.15 1564.58C5043.18 1560.02 5035.93 1557.74 5027.4 1557.74C5018.7 1557.74 5011.36 1560.1 5005.4 1564.82C4999.43 1569.55 4994.92 1576.09 4991.85 1584.46C4988.78 1592.83 4987.25 1602.53 4987.25 1613.55C4987.25 1624.65 4988.78 1634.47 4991.85 1643C4995 1651.45 4999.51 1658.08 5005.4 1662.89C5011.36 1667.61 5018.7 1669.97 5027.4 1669.97ZM5557.15 1712.11C5542.65 1712.11 5529.52 1708.38 5517.75 1700.92C5506.07 1693.38 5496.79 1682.32 5489.91 1667.74C5483.12 1653.07 5479.72 1635.09 5479.72 1613.79C5479.72 1591.92 5483.24 1573.73 5490.28 1559.23C5497.33 1544.65 5506.69 1533.75 5518.37 1526.54C5530.14 1519.25 5543.02 1515.61 5557.03 1515.61C5567.72 1515.61 5576.62 1517.43 5583.75 1521.07C5590.96 1524.64 5596.76 1529.11 5601.15 1534.5C5605.62 1539.8 5609.02 1545.02 5611.34 1550.16H5612.96V1454.45H5665.78V1709H5613.58V1678.42H5611.34C5608.86 1683.73 5605.33 1688.99 5600.78 1694.21C5596.3 1699.35 5590.46 1703.61 5583.25 1707.01C5576.13 1710.41 5567.43 1712.11 5557.15 1712.11ZM5573.93 1669.97C5582.46 1669.97 5589.67 1667.65 5595.56 1663.01C5601.52 1658.29 5606.08 1651.7 5609.23 1643.25C5612.46 1634.8 5614.08 1624.9 5614.08 1613.55C5614.08 1602.19 5612.5 1592.33 5609.35 1583.96C5606.2 1575.6 5601.65 1569.13 5595.68 1564.58C5589.72 1560.02 5582.46 1557.74 5573.93 1557.74C5565.23 1557.74 5557.9 1560.1 5551.93 1564.82C5545.97 1569.55 5541.45 1576.09 5538.38 1584.46C5535.32 1592.83 5533.78 1602.53 5533.78 1613.55C5533.78 1624.65 5535.32 1634.47 5538.38 1643C5541.53 1651.45 5546.05 1658.08 5551.93 1662.89C5557.9 1667.61 5565.23 1669.97 5573.93 1669.97ZM6103.68 1712.11C6089.18 1712.11 6076.05 1708.38 6064.28 1700.92C6052.6 1693.38 6043.32 1682.32 6036.44 1667.74C6029.65 1653.07 6026.25 1635.09 6026.25 1613.79C6026.25 1591.92 6029.77 1573.73 6036.82 1559.23C6043.86 1544.65 6053.22 1533.75 6064.91 1526.54C6076.67 1519.25 6089.56 1515.61 6103.56 1515.61C6114.25 1515.61 6123.16 1517.43 6130.28 1521.07C6137.49 1524.64 6143.29 1529.11 6147.68 1534.5C6152.16 1539.8 6155.55 1545.02 6157.87 1550.16H6159.49V1454.45H6212.31V1709H6160.11V1678.42H6157.87C6155.39 1683.73 6151.87 1688.99 6147.31 1694.21C6142.84 1699.35 6136.99 1703.61 6129.79 1707.01C6122.66 1710.41 6113.96 1712.11 6103.68 1712.11ZM6120.46 1669.97C6129 1669.97 6136.21 1667.65 6142.09 1663.01C6148.06 1658.29 6152.61 1651.7 6155.76 1643.25C6158.99 1634.8 6160.61 1624.9 6160.61 1613.55C6160.61 1602.19 6159.03 1592.33 6155.89 1583.96C6152.74 1575.6 6148.18 1569.13 6142.21 1564.58C6136.25 1560.02 6129 1557.74 6120.46 1557.74C6111.76 1557.74 6104.43 1560.1 6098.46 1564.82C6092.5 1569.55 6087.98 1576.09 6084.92 1584.46C6081.85 1592.83 6080.32 1602.53 6080.32 1613.55C6080.32 1624.65 6081.85 1634.47 6084.92 1643C6088.07 1651.45 6092.58 1658.08 6098.46 1662.89C6104.43 1667.61 6111.76 1669.97 6120.46 1669.97ZM6569.21 1712.11C6554.71 1712.11 6541.58 1708.38 6529.81 1700.92C6518.13 1693.38 6508.85 1682.32 6501.97 1667.74C6495.18 1653.07 6491.78 1635.09 6491.78 1613.79C6491.78 1591.92 6495.3 1573.73 6502.34 1559.23C6509.39 1544.65 6518.75 1533.75 6530.43 1526.54C6542.2 1519.25 6555.08 1515.61 6569.09 1515.61C6579.78 1515.61 6588.68 1517.43 6595.81 1521.07C6603.02 1524.64 6608.82 1529.11 6613.21 1534.5C6617.68 1539.8 6621.08 1545.02 6623.4 1550.16H6625.02V1454.45H6677.84V1709H6625.64V1678.42H6623.4C6620.92 1683.73 6617.39 1688.99 6612.84 1694.21C6608.36 1699.35 6602.52 1703.61 6595.31 1707.01C6588.19 1710.41 6579.49 1712.11 6569.21 1712.11ZM6585.99 1669.97C6594.53 1669.97 6601.73 1667.65 6607.62 1663.01C6613.58 1658.29 6618.14 1651.7 6621.29 1643.25C6624.52 1634.8 6626.14 1624.9 6626.14 1613.55C6626.14 1602.19 6624.56 1592.33 6621.41 1583.96C6618.26 1575.6 6613.71 1569.13 6607.74 1564.58C6601.78 1560.02 6594.53 1557.74 6585.99 1557.74C6577.29 1557.74 6569.96 1560.1 6563.99 1564.82C6558.03 1569.55 6553.51 1576.09 6550.44 1584.46C6547.38 1592.83 6545.85 1602.53 6545.85 1613.55C6545.85 1624.65 6547.38 1634.47 6550.44 1643C6553.59 1651.45 6558.11 1658.08 6563.99 1662.89C6569.96 1667.61 6577.29 1669.97 6585.99 1669.97Z" fill="#006CA9"/>
<path d="M2943.37 2154.45V2409H2889.56V2205.54H2888.07L2829.77 2242.08V2194.35L2892.79 2154.45H2943.37ZM3003.87 2409V2370.22L3094.48 2286.33C3102.19 2278.87 3108.65 2272.16 3113.87 2266.19C3119.17 2260.23 3123.19 2254.38 3125.92 2248.67C3128.66 2242.87 3130.03 2236.61 3130.03 2229.9C3130.03 2222.44 3128.33 2216.02 3124.93 2210.63C3121.53 2205.16 3116.89 2200.98 3111.01 2198.08C3105.13 2195.1 3098.46 2193.61 3091 2193.61C3083.21 2193.61 3076.42 2195.18 3070.62 2198.33C3064.82 2201.48 3060.34 2205.99 3057.19 2211.88C3054.04 2217.76 3052.47 2224.76 3052.47 2232.88H3001.39C3001.39 2216.23 3005.16 2201.77 3012.7 2189.5C3020.24 2177.24 3030.8 2167.75 3044.39 2161.04C3057.98 2154.33 3073.64 2150.97 3091.37 2150.97C3109.6 2150.97 3125.47 2154.21 3138.98 2160.67C3152.56 2167.05 3163.13 2175.92 3170.67 2187.27C3178.21 2198.62 3181.98 2211.63 3181.98 2226.29C3181.98 2235.91 3180.07 2245.39 3176.26 2254.76C3172.53 2264.12 3165.86 2274.52 3156.25 2285.95C3146.64 2297.3 3133.09 2310.94 3115.61 2326.84L3078.45 2363.26V2365H3185.34V2409H3003.87ZM4195.03 2234V2207.15C4195.03 2199.53 4196.53 2191.74 4199.51 2183.79C4202.49 2175.83 4206.43 2168.33 4211.32 2161.29C4216.21 2154.25 4221.51 2148.36 4227.23 2143.64L4250.59 2157.44C4245.95 2164.73 4242.14 2172.35 4239.16 2180.31C4236.26 2188.26 4234.81 2197.13 4234.81 2206.9V2234H4195.03ZM4257.8 2234V2207.15C4257.8 2199.53 4259.29 2191.74 4262.28 2183.79C4265.26 2175.83 4269.19 2168.33 4274.08 2161.29C4278.97 2154.25 4284.27 2148.36 4289.99 2143.64L4313.36 2157.44C4308.72 2164.73 4304.91 2172.35 4301.92 2180.31C4299.02 2188.26 4297.57 2197.13 4297.57 2206.9V2234H4257.8ZM4414.9 2412.11C4400.4 2412.11 4387.27 2408.38 4375.5 2400.92C4363.82 2393.38 4354.54 2382.32 4347.66 2367.74C4340.87 2353.07 4337.47 2335.09 4337.47 2313.79C4337.47 2291.92 4340.99 2273.73 4348.04 2259.23C4355.08 2244.65 4364.44 2233.75 4376.12 2226.54C4387.89 2219.25 4400.78 2215.61 4414.78 2215.61C4425.47 2215.61 4434.38 2217.43 4441.5 2221.07C4448.71 2224.64 4454.51 2229.11 4458.9 2234.5C4463.38 2239.8 4466.77 2245.02 4469.09 2250.16H4470.71V2154.45H4523.53V2409H4471.33V2378.42H4469.09C4466.61 2383.73 4463.09 2388.99 4458.53 2394.21C4454.05 2399.35 4448.21 2403.61 4441 2407.01C4433.88 2410.41 4425.18 2412.11 4414.9 2412.11ZM4431.68 2369.97C4440.22 2369.97 4447.43 2367.65 4453.31 2363.01C4459.27 2358.29 4463.83 2351.7 4466.98 2343.25C4470.21 2334.8 4471.83 2324.9 4471.83 2313.55C4471.83 2302.19 4470.25 2292.33 4467.1 2283.96C4463.96 2275.6 4459.4 2269.13 4453.43 2264.58C4447.47 2260.02 4440.22 2257.74 4431.68 2257.74C4422.98 2257.74 4415.65 2260.1 4409.68 2264.82C4403.72 2269.55 4399.2 2276.09 4396.14 2284.46C4393.07 2292.83 4391.54 2302.53 4391.54 2313.55C4391.54 2324.65 4393.07 2334.47 4396.14 2343C4399.28 2351.45 4403.8 2358.08 4409.68 2362.89C4415.65 2367.61 4422.98 2369.97 4431.68 2369.97ZM4637.41 2412.11C4622.91 2412.11 4609.78 2408.38 4598.01 2400.92C4586.33 2393.38 4577.05 2382.32 4570.17 2367.74C4563.38 2353.07 4559.98 2335.09 4559.98 2313.79C4559.98 2291.92 4563.5 2273.73 4570.54 2259.23C4577.59 2244.65 4586.95 2233.75 4598.63 2226.54C4610.4 2219.25 4623.29 2215.61 4637.29 2215.61C4647.98 2215.61 4656.88 2217.43 4664.01 2221.07C4671.22 2224.64 4677.02 2229.11 4681.41 2234.5C4685.89 2239.8 4689.28 2245.02 4691.6 2250.16H4693.22V2154.45H4746.04V2409H4693.84V2378.42H4691.6C4689.12 2383.73 4685.6 2388.99 4681.04 2394.21C4676.56 2399.35 4670.72 2403.61 4663.51 2407.01C4656.39 2410.41 4647.69 2412.11 4637.41 2412.11ZM4654.19 2369.97C4662.73 2369.97 4669.94 2367.65 4675.82 2363.01C4681.78 2358.29 4686.34 2351.7 4689.49 2343.25C4692.72 2334.8 4694.34 2324.9 4694.34 2313.55C4694.34 2302.19 4692.76 2292.33 4689.61 2283.96C4686.47 2275.6 4681.91 2269.13 4675.94 2264.58C4669.98 2260.02 4662.73 2257.74 4654.19 2257.74C4645.49 2257.74 4638.16 2260.1 4632.19 2264.82C4626.23 2269.55 4621.71 2276.09 4618.65 2284.46C4615.58 2292.83 4614.05 2302.53 4614.05 2313.55C4614.05 2324.65 4615.58 2334.47 4618.65 2343C4621.79 2351.45 4626.31 2358.08 4632.19 2362.89C4638.16 2367.61 4645.49 2369.97 4654.19 2369.97ZM4912 2327.71V2218.09H4964.95V2409H4914.11V2374.32H4912.12C4907.82 2385.51 4900.65 2394.5 4890.62 2401.29C4880.68 2408.09 4868.54 2411.49 4854.21 2411.49C4841.44 2411.49 4830.22 2408.59 4820.52 2402.79C4810.83 2396.99 4803.25 2388.74 4797.78 2378.05C4792.39 2367.36 4789.66 2354.56 4789.57 2339.65V2218.09H4842.52V2330.2C4842.6 2341.47 4845.63 2350.38 4851.6 2356.92C4857.56 2363.47 4865.56 2366.74 4875.58 2366.74C4881.96 2366.74 4887.93 2365.29 4893.48 2362.39C4899.03 2359.41 4903.51 2355.02 4906.9 2349.22C4910.38 2343.42 4912.08 2336.25 4912 2327.71ZM5077.65 2412.11C5063.15 2412.11 5050.01 2408.38 5038.25 2400.92C5026.56 2393.38 5017.28 2382.32 5010.41 2367.74C5003.61 2353.07 5000.21 2335.09 5000.21 2313.79C5000.21 2291.92 5003.74 2273.73 5010.78 2259.23C5017.82 2244.65 5027.19 2233.75 5038.87 2226.54C5050.63 2219.25 5063.52 2215.61 5077.52 2215.61C5088.21 2215.61 5097.12 2217.43 5104.25 2221.07C5111.45 2224.64 5117.25 2229.11 5121.65 2234.5C5126.12 2239.8 5129.52 2245.02 5131.84 2250.16H5133.45V2154.45H5186.28V2409H5134.07V2378.42H5131.84C5129.35 2383.73 5125.83 2388.99 5121.27 2394.21C5116.8 2399.35 5110.96 2403.61 5103.75 2407.01C5096.62 2410.41 5087.92 2412.11 5077.65 2412.11ZM5094.43 2369.97C5102.96 2369.97 5110.17 2367.65 5116.05 2363.01C5122.02 2358.29 5126.58 2351.7 5129.72 2343.25C5132.96 2334.8 5134.57 2324.9 5134.57 2313.55C5134.57 2302.19 5133 2292.33 5129.85 2283.96C5126.7 2275.6 5122.14 2269.13 5116.18 2264.58C5110.21 2260.02 5102.96 2257.74 5094.43 2257.74C5085.73 2257.74 5078.39 2260.1 5072.43 2264.82C5066.46 2269.55 5061.95 2276.09 5058.88 2284.46C5055.81 2292.83 5054.28 2302.53 5054.28 2313.55C5054.28 2324.65 5055.81 2334.47 5058.88 2343C5062.03 2351.45 5066.54 2358.08 5072.43 2362.89C5078.39 2367.61 5085.73 2369.97 5094.43 2369.97ZM5352.23 2327.71V2218.09H5405.18V2409H5354.35V2374.32H5352.36C5348.05 2385.51 5340.88 2394.5 5330.86 2401.29C5320.91 2408.09 5308.77 2411.49 5294.44 2411.49C5281.68 2411.49 5270.45 2408.59 5260.76 2402.79C5251.06 2396.99 5243.48 2388.74 5238.01 2378.05C5232.63 2367.36 5229.89 2354.56 5229.81 2339.65V2218.09H5282.76V2330.2C5282.84 2341.47 5285.86 2350.38 5291.83 2356.92C5297.8 2363.47 5305.79 2366.74 5315.82 2366.74C5322.2 2366.74 5328.16 2365.29 5333.72 2362.39C5339.27 2359.41 5343.74 2355.02 5347.14 2349.22C5350.62 2343.42 5352.32 2336.25 5352.23 2327.71ZM5517.88 2412.11C5503.38 2412.11 5490.25 2408.38 5478.48 2400.92C5466.8 2393.38 5457.52 2382.32 5450.64 2367.74C5443.85 2353.07 5440.45 2335.09 5440.45 2313.79C5440.45 2291.92 5443.97 2273.73 5451.01 2259.23C5458.06 2244.65 5467.42 2233.75 5479.1 2226.54C5490.87 2219.25 5503.75 2215.61 5517.76 2215.61C5528.45 2215.61 5537.35 2217.43 5544.48 2221.07C5551.69 2224.64 5557.49 2229.11 5561.88 2234.5C5566.35 2239.8 5569.75 2245.02 5572.07 2250.16H5573.69V2154.45H5626.51V2409H5574.31V2378.42H5572.07C5569.59 2383.73 5566.06 2388.99 5561.51 2394.21C5557.03 2399.35 5551.19 2403.61 5543.98 2407.01C5536.86 2410.41 5528.16 2412.11 5517.88 2412.11ZM5534.66 2369.97C5543.2 2369.97 5550.4 2367.65 5556.29 2363.01C5562.25 2358.29 5566.81 2351.7 5569.96 2343.25C5573.19 2334.8 5574.81 2324.9 5574.81 2313.55C5574.81 2302.19 5573.23 2292.33 5570.08 2283.96C5566.93 2275.6 5562.38 2269.13 5556.41 2264.58C5550.45 2260.02 5543.2 2257.74 5534.66 2257.74C5525.96 2257.74 5518.63 2260.1 5512.66 2264.82C5506.7 2269.55 5502.18 2276.09 5499.11 2284.46C5496.05 2292.83 5494.52 2302.53 5494.52 2313.55C5494.52 2324.65 5496.05 2334.47 5499.11 2343C5502.26 2351.45 5506.78 2358.08 5512.66 2362.89C5518.63 2367.61 5525.96 2369.97 5534.66 2369.97ZM5740.39 2412.11C5725.89 2412.11 5712.76 2408.38 5700.99 2400.92C5689.31 2393.38 5680.03 2382.32 5673.15 2367.74C5666.36 2353.07 5662.96 2335.09 5662.96 2313.79C5662.96 2291.92 5666.48 2273.73 5673.52 2259.23C5680.57 2244.65 5689.93 2233.75 5701.61 2226.54C5713.38 2219.25 5726.26 2215.61 5740.27 2215.61C5750.96 2215.61 5759.86 2217.43 5766.99 2221.07C5774.2 2224.64 5780 2229.11 5784.39 2234.5C5788.86 2239.8 5792.26 2245.02 5794.58 2250.16H5796.2V2154.45H5849.02V2409H5796.82V2378.42H5794.58C5792.1 2383.73 5788.57 2388.99 5784.02 2394.21C5779.54 2399.35 5773.7 2403.61 5766.49 2407.01C5759.37 2410.41 5750.67 2412.11 5740.39 2412.11ZM5757.17 2369.97C5765.71 2369.97 5772.91 2367.65 5778.8 2363.01C5784.76 2358.29 5789.32 2351.7 5792.47 2343.25C5795.7 2334.8 5797.32 2324.9 5797.32 2313.55C5797.32 2302.19 5795.74 2292.33 5792.59 2283.96C5789.44 2275.6 5784.89 2269.13 5778.92 2264.58C5772.96 2260.02 5765.71 2257.74 5757.17 2257.74C5748.47 2257.74 5741.14 2260.1 5735.17 2264.82C5729.21 2269.55 5724.69 2276.09 5721.62 2284.46C5718.56 2292.83 5717.02 2302.53 5717.02 2313.55C5717.02 2324.65 5718.56 2334.47 5721.62 2343C5724.77 2351.45 5729.29 2358.08 5735.17 2362.89C5741.14 2367.61 5748.47 2369.97 5757.17 2369.97ZM5962.9 2412.11C5948.4 2412.11 5935.27 2408.38 5923.5 2400.92C5911.82 2393.38 5902.54 2382.32 5895.66 2367.74C5888.87 2353.07 5885.47 2335.09 5885.47 2313.79C5885.47 2291.92 5888.99 2273.73 5896.03 2259.23C5903.08 2244.65 5912.44 2233.75 5924.12 2226.54C5935.89 2219.25 5948.77 2215.61 5962.78 2215.61C5973.47 2215.61 5982.37 2217.43 5989.5 2221.07C5996.71 2224.64 6002.51 2229.11 6006.9 2234.5C6011.37 2239.8 6014.77 2245.02 6017.09 2250.16H6018.71V2154.45H6071.53V2409H6019.33V2378.42H6017.09C6014.61 2383.73 6011.08 2388.99 6006.53 2394.21C6002.05 2399.35 5996.21 2403.61 5989 2407.01C5981.88 2410.41 5973.18 2412.11 5962.9 2412.11ZM5979.68 2369.97C5988.21 2369.97 5995.42 2367.65 6001.31 2363.01C6007.27 2358.29 6011.83 2351.7 6014.98 2343.25C6018.21 2334.8 6019.83 2324.9 6019.83 2313.55C6019.83 2302.19 6018.25 2292.33 6015.1 2283.96C6011.95 2275.6 6007.4 2269.13 6001.43 2264.58C5995.47 2260.02 5988.21 2257.74 5979.68 2257.74C5970.98 2257.74 5963.65 2260.1 5957.68 2264.82C5951.72 2269.55 5947.2 2276.09 5944.13 2284.46C5941.07 2292.83 5939.53 2302.53 5939.53 2313.55C5939.53 2324.65 5941.07 2334.47 5944.13 2343C5947.28 2351.45 5951.8 2358.08 5957.68 2362.89C5963.65 2367.61 5970.98 2369.97 5979.68 2369.97ZM6185.41 2412.11C6170.91 2412.11 6157.78 2408.38 6146.01 2400.92C6134.33 2393.38 6125.05 2382.32 6118.17 2367.74C6111.38 2353.07 6107.98 2335.09 6107.98 2313.79C6107.98 2291.92 6111.5 2273.73 6118.54 2259.23C6125.59 2244.65 6134.95 2233.75 6146.63 2226.54C6158.4 2219.25 6171.28 2215.61 6185.29 2215.61C6195.98 2215.61 6204.88 2217.43 6212.01 2221.07C6219.22 2224.64 6225.02 2229.11 6229.41 2234.5C6233.88 2239.8 6237.28 2245.02 6239.6 2250.16H6241.22V2154.45H6294.04V2409H6241.84V2378.42H6239.6C6237.12 2383.73 6233.59 2388.99 6229.04 2394.21C6224.56 2399.35 6218.72 2403.61 6211.51 2407.01C6204.39 2410.41 6195.69 2412.11 6185.41 2412.11ZM6202.19 2369.97C6210.72 2369.97 6217.93 2367.65 6223.82 2363.01C6229.78 2358.29 6234.34 2351.7 6237.49 2343.25C6240.72 2334.8 6242.34 2324.9 6242.34 2313.55C6242.34 2302.19 6240.76 2292.33 6237.61 2283.96C6234.46 2275.6 6229.91 2269.13 6223.94 2264.58C6217.97 2260.02 6210.72 2257.74 6202.19 2257.74C6193.49 2257.74 6186.16 2260.1 6180.19 2264.82C6174.22 2269.55 6169.71 2276.09 6166.64 2284.46C6163.58 2292.83 6162.04 2302.53 6162.04 2313.55C6162.04 2324.65 6163.58 2334.47 6166.64 2343C6169.79 2351.45 6174.31 2358.08 6180.19 2362.89C6186.16 2367.61 6193.49 2369.97 6202.19 2369.97ZM6381.94 2154.45V2181.3C6381.94 2188.92 6380.45 2196.71 6377.47 2204.67C6374.57 2212.54 6370.68 2220 6365.79 2227.04C6360.9 2234 6355.55 2239.92 6349.75 2244.81L6326.39 2231.02C6330.53 2224.47 6334.18 2217.22 6337.32 2209.27C6340.56 2201.31 6342.17 2192.07 6342.17 2181.55V2154.45H6381.94ZM6444.46 2154.45V2181.3C6444.46 2188.92 6442.97 2196.71 6439.99 2204.67C6437.09 2212.54 6433.19 2220 6428.3 2227.04C6423.42 2234 6418.03 2239.92 6412.15 2244.81L6388.78 2231.02C6393.01 2224.47 6396.69 2217.22 6399.84 2209.27C6403.07 2201.31 6404.69 2192.07 6404.69 2181.55V2154.45H6444.46Z" fill="#FA8F00"/>
<line x1="2236" y1="759" x2="2236" y2="454" stroke="#737370" stroke-width="10"/>
<line x1="2236" y1="1429" x2="2236" y2="1124" stroke="#737370" stroke-width="10"/>
<line x1="6552" y1="759" x2="6552" y2="454" stroke="#737370" stroke-width="10"/>
<line x1="6552" y1="1429" x2="6552" y2="1124" stroke="#737370" stroke-width="10"/>
<line x1="2236" y1="759" x2="2236" y2="454" stroke="#737370" stroke-width="10"/>
<line x1="2236" y1="1429" x2="2236" y2="1124" stroke="#737370" stroke-width="10"/>
<line x1="6095" y1="759" x2="6095" y2="454" stroke="#737370" stroke-width="10"/>
<line x1="6095" y1="1429" x2="6095" y2="1124" stroke="#737370" stroke-width="10"/>
<line x1="5557" y1="759" x2="5557" y2="454" stroke="#737370" stroke-width="10"/>
<line x1="5557" y1="1429" x2="5557" y2="1124" stroke="#737370" stroke-width="10"/>
<line x1="5019" y1="729" x2="5019" y2="424" stroke="#737370" stroke-width="10"/>
<line x1="5019" y1="1399" x2="5019" y2="1094" stroke="#737370" stroke-width="10"/>
<line x1="4450" y1="729" x2="4450" y2="424" stroke="#737370" stroke-width="10"/>
<line x1="4450" y1="1399" x2="4450" y2="1094" stroke="#737370" stroke-width="10"/>
<line x1="3881" y1="759" x2="3881" y2="454" stroke="#737370" stroke-width="10"/>
<line x1="3881" y1="1429" x2="3881" y2="1124" stroke="#737370" stroke-width="10"/>
<line x1="3305" y1="759" x2="3305" y2="454" stroke="#737370" stroke-width="10"/>
<line x1="3305" y1="1429" x2="3305" y2="1124" stroke="#737370" stroke-width="10"/>
<line x1="2795" y1="759" x2="2795" y2="454" stroke="#737370" stroke-width="10"/>
<line x1="2795" y1="1429" x2="2795" y2="1124" stroke="#737370" stroke-width="10"/>
<path d="M2671.41 421.636C2670.1 419.202 2667.07 418.289 2664.64 419.594L2624.98 440.873C2622.55 442.179 2621.64 445.21 2622.94 447.643C2624.25 450.076 2627.28 450.99 2629.71 449.684L2664.96 430.77L2683.87 466.016C2685.18 468.449 2688.21 469.363 2690.64 468.057C2693.08 466.751 2693.99 463.72 2692.68 461.287L2671.41 421.636ZM2377.79 1400.44L2671.79 425.443L2662.21 422.556L2368.21 1397.56L2377.79 1400.44Z" fill="#737370"/>
<path d="M6919.41 421.636C6918.1 419.202 6915.07 418.289 6912.64 419.594L6872.98 440.873C6870.55 442.179 6869.64 445.21 6870.94 447.643C6872.25 450.076 6875.28 450.99 6877.71 449.684L6912.96 430.77L6931.87 466.016C6933.18 468.449 6936.21 469.363 6938.64 468.057C6941.08 466.751 6941.99 463.72 6940.68 461.287L6919.41 421.636ZM6625.79 1400.44L6919.79 425.443L6910.21 422.556L6616.21 1397.56L6625.79 1400.44Z" fill="#737370"/>
<path d="M6479.41 421.636C6478.1 419.202 6475.07 418.289 6472.64 419.594L6432.98 440.873C6430.55 442.179 6429.64 445.21 6430.94 447.643C6432.25 450.076 6435.28 450.99 6437.71 449.684L6472.96 430.77L6491.87 466.016C6493.18 468.449 6496.21 469.363 6498.64 468.057C6501.08 466.751 6501.99 463.72 6500.68 461.287L6479.41 421.636ZM6185.79 1400.44L6479.79 425.443L6470.21 422.556L6176.21 1397.56L6185.79 1400.44Z" fill="#737370"/>
<path d="M5992.41 421.636C5991.1 419.202 5988.07 418.289 5985.64 419.594L5945.98 440.873C5943.55 442.179 5942.64 445.21 5943.94 447.643C5945.25 450.076 5948.28 450.99 5950.71 449.684L5985.96 430.77L6004.87 466.016C6006.18 468.449 6009.21 469.363 6011.64 468.057C6014.08 466.751 6014.99 463.72 6013.68 461.287L5992.41 421.636ZM5698.79 1400.44L5992.79 425.443L5983.21 422.556L5689.21 1397.56L5698.79 1400.44Z" fill="#737370"/>
<path d="M5444.41 421.636C5443.1 419.202 5440.07 418.289 5437.64 419.594L5397.98 440.873C5395.55 442.179 5394.64 445.21 5395.94 447.643C5397.25 450.076 5400.28 450.99 5402.71 449.684L5437.96 430.77L5456.87 466.016C5458.18 468.449 5461.21 469.363 5463.64 468.057C5466.08 466.751 5466.99 463.72 5465.68 461.287L5444.41 421.636ZM5150.79 1400.44L5444.79 425.443L5435.21 422.556L5141.21 1397.56L5150.79 1400.44Z" fill="#737370"/>
<path d="M4875.41 421.636C4874.1 419.202 4871.07 418.289 4868.64 419.594L4828.98 440.873C4826.55 442.179 4825.64 445.21 4826.94 447.643C4828.25 450.076 4831.28 450.99 4833.71 449.684L4868.96 430.77L4887.87 466.016C4889.18 468.449 4892.21 469.363 4894.64 468.057C4897.08 466.751 4897.99 463.72 4896.68 461.287L4875.41 421.636ZM4581.79 1400.44L4875.79 425.443L4866.21 422.556L4572.21 1397.56L4581.79 1400.44Z" fill="#737370"/>
<path d="M4332.41 451.636C4331.1 449.202 4328.07 448.289 4325.64 449.594L4285.98 470.873C4283.55 472.179 4282.64 475.21 4283.94 477.643C4285.25 480.076 4288.28 480.99 4290.71 479.684L4325.96 460.77L4344.87 496.016C4346.18 498.449 4349.21 499.363 4351.64 498.057C4354.08 496.751 4354.99 493.72 4353.68 491.287L4332.41 451.636ZM4038.79 1430.44L4332.79 455.443L4323.21 452.556L4029.21 1427.56L4038.79 1430.44Z" fill="#737370"/>
<path d="M3778.41 451.636C3777.1 449.202 3774.07 448.289 3771.64 449.594L3731.98 470.873C3729.55 472.179 3728.64 475.21 3729.94 477.643C3731.25 480.076 3734.28 480.99 3736.71 479.684L3771.96 460.77L3790.87 496.016C3792.18 498.449 3795.21 499.363 3797.64 498.057C3800.08 496.751 3800.99 493.72 3799.68 491.287L3778.41 451.636ZM3484.79 1430.44L3778.79 455.443L3769.21 452.556L3475.21 1427.56L3484.79 1430.44Z" fill="#737370"/>
<path d="M3214.41 451.636C3213.1 449.202 3210.07 448.289 3207.64 449.594L3167.98 470.873C3165.55 472.179 3164.64 475.21 3165.94 477.643C3167.25 480.076 3170.28 480.99 3172.71 479.684L3207.96 460.77L3226.87 496.016C3228.18 498.449 3231.21 499.363 3233.64 498.057C3236.08 496.751 3236.99 493.72 3235.68 491.287L3214.41 451.636ZM2920.79 1430.44L3214.79 455.443L3205.21 452.556L2911.21 1427.56L2920.79 1430.44Z" fill="#737370"/>
</svg>
